<?xml version="1.0" encoding="UTF-8" standalone="no"?>
<svg
   xmlns:dc="http://purl.org/dc/elements/1.1/"
   xmlns:cc="http://creativecommons.org/ns#"
   xmlns:rdf="http://www.w3.org/1999/02/22-rdf-syntax-ns#"
   xmlns:svg="http://www.w3.org/2000/svg"
   xmlns="http://www.w3.org/2000/svg"
   xmlns:sodipodi="http://sodipodi.sourceforge.net/DTD/sodipodi-0.dtd"
   xmlns:inkscape="http://www.inkscape.org/namespaces/inkscape"
   inkscape:version="1.0 (6e3e5246a0, 2020-05-07)"
   sodipodi:docname="uni_head_official-colorinverted.svg"
   id="svg107"
   viewBox="0 0 150 80.756966"
   height="80.756966"
   width="150"
   y="0px"
   x="0px"
   version="1.1">
  <metadata
     id="metadata111">
    <rdf:RDF>
      <cc:Work
         rdf:about="">
        <dc:format>image/svg+xml</dc:format>
        <dc:type
           rdf:resource="http://purl.org/dc/dcmitype/StillImage" />
      </cc:Work>
    </rdf:RDF>
  </metadata>
  <sodipodi:namedview
     inkscape:current-layer="svg107"
     inkscape:window-maximized="1"
     inkscape:window-y="27"
     inkscape:window-x="72"
     inkscape:cy="121.23836"
     inkscape:cx="241.55844"
     inkscape:zoom="2.7256637"
     showgrid="false"
     id="namedview109"
     inkscape:window-height="1016"
     inkscape:window-width="1848"
     inkscape:pageshadow="2"
     inkscape:pageopacity="0"
     guidetolerance="10"
     gridtolerance="10"
     objecttolerance="10"
     borderopacity="1"
     bordercolor="#666666"
     pagecolor="#ffffff" />
  <g
     transform="matrix(0.33200752,0,0,0.33200752,-0.01992045,-0.25287096)"
     id="Layer 1">
    <path
       id="path2"
       fill="#FFFFFE"
       d="m 46.535,160.465 -2.722,1.055 c -1.612,0.679 -2.484,1.239 -2.545,2.538 -0.122,3.471 0,8.55 -0.122,19.587 -0.124,12.012 -6.011,16.47 -15.239,16.47 -8.983,0 -15.245,-3.899 -15.245,-13.379 v -17.41 c 0,-5.2 -0.177,-6.445 -1.92,-7.127 L 4.277,160.465 V 159.6 c 3.043,0.247 5.955,0.499 8.862,0.499 3.287,0 6.507,-0.252 9.794,-0.499 v 0.865 l -2.852,1.055 c -3.41,1.301 -3.906,1.551 -4.023,3.718 -0.189,3.661 -0.189,8.98 -0.189,18.524 0,7.928 1.796,13.135 11.643,13.135 6.514,0 10.414,-4.031 10.414,-11.468 0,-7.609 -0.061,-17.469 -0.565,-21.745 -0.116,-1.115 -1.048,-1.606 -2.722,-2.164 l -3.41,-1.055 V 159.6 c 2.668,0.247 5.33,0.499 8.058,0.499 2.355,0 4.771,-0.252 7.248,-0.499 v 0.865" />
    <path
       id="path4"
       fill="#FFFFFE"
       d="m 97.554,160.78 -4.151,1.483 c -1.362,0.497 -1.987,1.113 -2.048,2.237 -0.186,5.011 -0.681,15.98 -0.681,19.576 0,2.539 0,9.656 0.121,16.72 h -1.482 c -3.968,-5.879 -8.242,-11.522 -12.455,-17.22 L 64.28,166.658 h -0.122 v 6.943 c 0,8.181 0.122,20.384 0.306,21.56 0.19,0.996 0.625,1.484 2.424,2.041 l 4.089,1.302 v 0.862 c -2.729,-0.238 -5.518,-0.481 -8.241,-0.481 -2.67,0 -5.26,0.243 -7.928,0.481 v -0.862 l 4.701,-1.798 c 0.872,-0.305 1.429,-0.865 1.491,-1.424 0.245,-1.978 0.682,-11.206 0.682,-19.143 v -12.264 l -0.805,-1.238 c -1.924,-0.87 -3.839,-1.546 -5.826,-2.173 v -0.863 c 1.987,0.246 3.968,0.498 5.949,0.498 1.856,0 3.715,-0.252 5.574,-0.498 1.177,2.166 2.485,4.15 3.967,6.133 l 17.532,23.54 0.123,-0.121 v -14.995 c 0,-2.973 -0.061,-6.008 -0.244,-9.045 -0.122,-1.737 -0.62,-2.233 -2.415,-2.972 l -4.091,-1.677 v -0.863 c 2.537,0.246 5.145,0.498 7.682,0.498 2.785,0 5.576,-0.252 8.426,-0.498 v 1.179" />
    <path
       id="path6"
       fill="#FFFFFE"
       d="m 108.525,198.505 4.77,-1.608 c 1.547,-0.558 1.735,-0.808 1.789,-5.581 0.068,-3.709 0.193,-7.492 0.193,-11.21 0,-3.715 -0.125,-7.498 -0.193,-11.207 -0.122,-5.827 -0.181,-6.262 -1.36,-6.699 l -5.199,-1.735 v -0.864 c 2.966,0.246 6.01,0.498 9.475,0.498 3.096,0 6.131,-0.252 9.235,-0.498 v 0.864 l -5.207,1.735 c -1.178,0.437 -1.237,0.872 -1.362,6.699 -0.06,3.709 -0.19,7.492 -0.19,11.207 0,3.718 0.13,7.501 0.19,11.21 0.063,4.773 0.247,5.023 1.797,5.581 l 4.772,1.608 v 0.861 c -2.914,-0.238 -6.506,-0.481 -9.235,-0.481 -3.097,0 -6.692,0.243 -9.475,0.481 v -0.861" />
    <path
       id="path8"
       fill="#FFFFFE"
       d="m 134.317,159.6 c 2.851,0.246 5.766,0.499 8.611,0.499 2.606,0 5.266,-0.253 7.875,-0.499 v 0.865 l -2.174,0.626 c -2.851,0.803 -3.407,1.109 -3.407,1.79 0,1.308 7.934,20.568 10.847,27.136 3.779,-9.031 7.243,-17.962 9.413,-24.842 0.374,-1.118 0.62,-1.798 0.62,-2.478 0,-0.681 -1.92,-1.367 -4.649,-2.232 V 159.6 c 2.355,0.246 4.71,0.499 7.065,0.499 1.919,0 3.776,-0.253 5.634,-0.499 v 0.865 c -2.66,0.68 -3.531,1.369 -4.519,3.471 -3.905,8.487 -8.799,20.69 -14.496,36.179 h -1.423 c -4.029,-11.275 -10.352,-26.88 -14.251,-35.873 -0.993,-2.286 -1.422,-2.476 -3.409,-3.151 l -1.737,-0.626 V 159.6" />
    <path
       id="path10"
       fill="#FFFFFE"
       d="m 187.074,168.899 c 0,-5.827 -0.19,-6.262 -1.544,-6.699 l -5.214,-1.736 v -0.863 c 5.146,0.246 9.855,0.498 14.558,0.498 5.894,0 11.722,-0.252 17.167,-0.498 -0.065,1.545 -0.19,3.775 -0.19,4.71 0,0.927 0.125,3.037 0.19,4.466 h -0.871 l -1.611,-4.652 c -0.615,-1.74 -1.105,-1.74 -8.235,-1.74 -3.597,0 -6.45,0.062 -8.737,0.121 -0.122,2.174 -0.307,4.467 -0.307,7.065 v 7.623 h 6.439 c 7.503,0 8.183,-0.122 8.742,-1.484 l 1.605,-4.403 h 0.868 c -0.057,2.355 -0.125,4.71 -0.125,7.004 0,2.544 0.068,4.891 0.125,7.492 h -0.868 l -1.605,-4.71 c -0.559,-1.353 -1.239,-1.483 -8.742,-1.483 h -6.439 v 8.424 c 0,2.854 0.185,5.698 0.307,8.304 2.914,0.063 5.826,0.252 8.618,0.252 6.619,0 7.554,-0.067 8.173,-0.803 0.743,-0.932 1.424,-2.92 2.541,-6.573 h 0.856 c -0.119,1.796 -0.36,3.653 -0.36,5.456 v 4.696 c -3.219,-0.238 -12.763,-0.481 -16.234,-0.481 -5.452,0 -11.4,0.243 -15.865,0.481 v -0.862 l 4.779,-1.607 c 1.735,-0.559 1.979,-0.809 1.979,-5.581 v -22.417" />
    <path
       id="path12"
       fill="#FFFFFE"
       d="m 225.682,198.505 4.769,-1.608 c 1.731,-0.558 1.979,-0.808 1.979,-5.581 v -22.417 c 0,-5.827 -0.18,-6.262 -1.547,-6.699 l -5.201,-1.735 v -0.864 c 2.292,0.246 5.201,0.498 8.547,0.498 3.221,0 6.749,-0.498 11.156,-0.498 8.174,0 13.504,3.342 13.504,9.542 0,6.261 -4.457,9.226 -10.163,10.161 l 8.546,12.761 c 3.593,5.39 3.908,5.819 7.372,6.44 v 0.861 c -1.421,-0.113 -2.908,-0.238 -4.326,-0.238 -1.494,0 -3.046,0.125 -4.59,0.238 -3.962,-6.68 -9.48,-14.619 -13.321,-19.626 h -4.77 v 7.118 c 0,8.059 0.187,9.481 1.799,9.97 l 4.945,1.677 v 0.861 c -2.66,-0.238 -6.812,-0.481 -8.973,-0.481 -3.158,0 -6.755,0.243 -9.726,0.481 z m 11.955,-20.815 h 4.215 c 5.762,0 11.083,-0.924 11.083,-7.744 0,-5.446 -3.773,-7.805 -9.597,-7.805 -1.985,0 -3.84,0.059 -5.701,0.059 v 15.49" />
    <path
       id="path14"
       fill="#FFFFFE"
       d="m 275.49,188.287 h 0.867 l 2.112,7.992 c 1.853,1.055 4.763,1.42 6.311,1.42 4.957,0 9.478,-2.223 9.478,-7.988 0,-8.794 -19.392,-8.06 -19.392,-19.704 0,-7.5 6.937,-11.156 13.632,-11.156 2.6,0 6.568,0.811 9.174,1.983 l -0.38,8.493 h -0.68 l -2.411,-6.88 c -2.107,-0.811 -4.148,-1.18 -6.258,-1.18 -3.903,0 -7.502,3.043 -7.502,7.195 0,9.727 19.398,7.248 19.398,20.072 0,5.388 -4.032,11.581 -16.241,11.581 -2.969,0 -5.629,-0.366 -9.168,-1.735 l 1.06,-10.093" />
    <path
       id="path16"
       fill="#FFFFFE"
       d="m 312.245,198.505 4.771,-1.608 c 1.554,-0.558 1.744,-0.808 1.797,-5.581 0.07,-3.709 0.185,-7.492 0.185,-11.21 0,-3.715 -0.115,-7.498 -0.185,-11.207 -0.113,-5.827 -0.182,-6.262 -1.361,-6.699 l -5.207,-1.735 v -0.864 c 2.984,0.246 6.019,0.498 9.49,0.498 3.09,0 6.13,-0.252 9.228,-0.498 v 0.864 l -5.207,1.735 c -1.178,0.437 -1.236,0.872 -1.361,6.699 -0.069,3.709 -0.191,7.492 -0.191,11.207 0,3.718 0.122,7.501 0.191,11.21 0.061,4.773 0.244,5.023 1.798,5.581 l 4.77,1.608 v 0.861 c -2.922,-0.238 -6.507,-0.481 -9.228,-0.481 -3.104,0 -6.699,0.243 -9.49,0.481 v -0.861" />
    <path
       id="path18"
       fill="#FFFFFE"
       d="m 339.781,159.6 c 5.391,0.246 10.711,0.499 16.11,0.499 5.388,0 10.72,-0.253 16.107,-0.499 v 10.529 h -0.869 l -1.858,-4.954 c -0.865,-2.103 -1.492,-2.353 -10.783,-2.353 v 27.011 c 0,3.096 0.125,4.71 0.5,5.575 0.366,0.808 1.668,1.551 6.383,3.096 v 0.863 c -2.92,-0.239 -5.642,-0.482 -9.48,-0.482 -3.839,0 -6.567,0.243 -9.483,0.482 v -0.863 c 4.711,-1.545 6.072,-2.288 6.377,-3.096 0.375,-0.865 0.496,-2.479 0.496,-5.575 v -27.011 c -9.289,0 -9.912,0.25 -10.777,2.353 l -1.858,4.954 h -0.865 V 159.6" />
    <path
       id="path20"
       fill="#FFFFFE"
       d="m 374.198,198.488 c 1.497,-0.553 3.234,-1.234 4.716,-2.042 5.392,-12.702 12.082,-26.953 16.539,-38.099 h 1.36 c 4.964,12.883 10.537,25.771 15.796,38.343 l 5.206,1.798 v 0.862 c -3.276,-0.238 -6.499,-0.483 -9.785,-0.483 -2.792,0 -5.512,0.245 -8.303,0.483 v -0.862 c 1.544,-0.369 4.219,-1.171 6.07,-1.914 -0.742,-2.606 -2.721,-8.431 -3.586,-10.292 -2.602,-0.058 -5.267,-0.122 -7.875,-0.122 -2.599,0 -5.14,0.064 -7.735,0.122 -1.677,3.166 -2.67,6.815 -3.535,10.292 l 5.329,1.914 v 0.862 c -2.422,-0.238 -4.838,-0.483 -7.317,-0.483 -2.287,0 -4.58,0.245 -6.88,0.483 z m 15.62,-42.368 c -1.56,0 -2.913,-1.497 -2.913,-3.104 0,-1.362 1.421,-2.851 2.913,-2.851 1.551,0 3.035,1.42 3.035,2.851 0,1.667 -1.429,3.104 -3.035,3.104 m 4.77,11.21 -7.127,16.414 h 13.941 z m 7.496,-11.21 c -1.487,0 -2.916,-1.497 -2.916,-3.104 0,-1.362 1.492,-2.851 2.916,-2.851 1.551,0 3.033,1.42 3.033,2.851 0,1.667 -1.423,3.104 -3.033,3.104" />
    <path
       id="path22"
       fill="#FFFFFE"
       d="m 418.766,159.6 c 5.382,0.246 10.713,0.499 16.109,0.499 5.387,0 10.722,-0.253 16.105,-0.499 v 10.529 h -0.873 l -1.849,-4.954 c -0.864,-2.103 -1.493,-2.353 -10.786,-2.353 v 27.011 c 0,3.096 0.127,4.71 0.495,5.575 0.374,0.808 1.675,1.551 6.382,3.096 v 0.863 c -2.911,-0.239 -5.634,-0.482 -9.474,-0.482 -3.844,0 -6.566,0.243 -9.479,0.482 v -0.863 c 4.703,-1.545 6.069,-2.288 6.375,-3.096 0.369,-0.865 0.5,-2.479 0.5,-5.575 v -27.011 c -9.292,0 -9.917,0.25 -10.783,2.353 l -1.857,4.954 h -0.865 V 159.6" />
    <path
       id="path24"
       fill="#FFFFFE"
       d="m 36.811,101.06 c 0,-1.109 -0.279,-1.524 -3.391,-2.7 L 29.269,96.775 V 95.8 c 3.322,0.135 6.644,0.552 9.963,0.552 3.112,0 6.155,-0.417 9.196,-0.552 v 0.975 l -4.356,2.075 c -1.245,0.619 -1.449,1.305 -1.449,2.763 v 10.651 c 0,0.695 0.067,1.872 0.137,3.11 -2.628,0.838 -8.372,1.941 -13.008,1.941 -15.769,0 -25.46,-9.202 -25.46,-22.202 0,-15.852 14.809,-23.87 27.053,-23.87 3.805,0 6.846,0.341 9.822,0.968 -0.068,1.798 -0.136,3.593 -0.136,5.328 0,2.001 0.068,4.01 0.136,6.018 H 40.2 c -0.968,-2.976 -2.281,-6.786 -3.322,-8.1 -0.693,-0.898 -4.838,-1.516 -7.542,-1.516 -9.752,0 -17.986,6.704 -17.986,20.54 0,11.91 7.058,20.131 17.369,20.131 2.899,0 5.532,-0.34 7.948,-1.165 0.076,-1.046 0.144,-2.077 0.144,-2.558 v -9.829" />
    <path
       id="path26"
       fill="#FFFFFE"
       d="m 57.446,94.699 c 0,-13.771 8.644,-23.455 22.616,-23.455 12.734,0 20.894,8.93 20.894,21.515 0,13.7 -8.235,24.555 -21.996,24.555 -14.394,0 -21.514,-11.414 -21.514,-22.615 m 36.453,1.381 c 0,-11.556 -3.186,-22.556 -14.593,-22.556 -9.623,0 -14.809,8.025 -14.809,17.851 0,14.253 5.05,23.66 15.157,23.66 10.508,0 14.245,-9.551 14.245,-18.955" />
    <path
       id="path28"
       fill="#FFFFFE"
       d="m 116.563,82.453 c 0,-6.506 -0.208,-6.996 -1.728,-7.471 l -5.805,-1.949 v -0.959 c 5.737,0.273 11,0.559 16.252,0.559 6.575,0 13.082,-0.286 19.166,-0.559 -0.068,1.721 -0.211,4.22 -0.211,5.255 0,1.036 0.143,3.395 0.211,4.983 h -0.967 l -1.803,-5.196 c -0.694,-1.93 -1.238,-1.93 -9.202,-1.93 -4.007,0 -7.194,0.067 -9.753,0.136 -0.141,2.421 -0.345,4.982 -0.345,7.88 v 8.514 h 7.192 c 8.371,0 9.134,-0.137 9.759,-1.653 l 1.797,-4.915 h 0.967 c -0.068,2.629 -0.143,5.255 -0.143,7.816 0,2.836 0.075,5.47 0.143,8.367 h -0.967 l -1.797,-5.252 c -0.625,-1.525 -1.388,-1.668 -9.759,-1.668 h -7.192 v 9.419 c 0,3.179 0.204,6.359 0.345,9.265 3.254,0.073 6.507,0.283 9.617,0.283 7.398,0 8.44,-0.079 9.126,-0.895 0.838,-1.044 1.594,-3.262 2.846,-7.34 h 0.965 c -0.141,2.003 -0.414,4.078 -0.414,6.092 v 5.249 c -3.601,-0.273 -14.25,-0.544 -18.129,-0.544 -6.087,0 -12.723,0.271 -17.704,0.544 v -0.967 l 5.321,-1.789 c 1.94,-0.633 2.212,-0.905 2.212,-6.237 V 82.453" />
    <path
       id="path30"
       fill="#FFFFFE"
       d="m 156.458,72.074 c 6.022,0.273 11.966,0.559 17.989,0.559 6.016,0 11.965,-0.286 17.988,-0.559 v 11.76 h -0.966 l -2.083,-5.532 c -0.967,-2.353 -1.661,-2.635 -12.033,-2.635 v 30.165 c 0,3.457 0.127,5.255 0.551,6.229 0.416,0.897 1.864,1.726 7.126,3.456 v 0.967 c -3.254,-0.273 -6.295,-0.544 -10.583,-0.544 -4.295,0 -7.337,0.271 -10.591,0.544 v -0.967 c 5.261,-1.73 6.787,-2.559 7.133,-3.456 0.415,-0.974 0.551,-2.772 0.551,-6.229 V 75.667 c -10.379,0 -11.066,0.282 -12.04,2.635 l -2.075,5.532 h -0.967 v -11.76" />
    <path
       id="path32"
       fill="#FFFFFE"
       d="m 201.529,115.517 5.328,-1.789 c 1.935,-0.633 2.212,-0.905 2.212,-6.237 V 82.453 c 0,-6.506 -0.209,-6.996 -1.73,-7.471 l -5.81,-1.949 v -0.959 c 3.525,0.273 6.922,0.559 10.176,0.559 3.519,0 7.046,-0.286 10.715,-0.559 v 0.959 l -5.184,1.73 c -2.074,0.694 -2.364,1.184 -2.364,4.574 v 12.379 h 20.48 V 79.337 c 0,-3.39 -0.272,-3.88 -2.348,-4.574 l -5.19,-1.73 v -0.959 c 3.676,0.273 7.198,0.559 10.733,0.559 3.242,0 6.635,-0.286 10.168,-0.559 v 0.959 l -5.814,1.949 c -1.524,0.475 -1.729,0.965 -1.729,7.471 v 25.038 c 0,5.332 0.271,5.604 2.205,6.237 l 5.338,1.789 v 0.967 c -3.323,-0.272 -7.338,-0.544 -10.873,-0.544 -2.416,0 -7.049,0.272 -10.028,0.544 v -0.967 l 5.537,-1.872 c 1.797,-0.55 2.001,-2.138 2.001,-11.133 v -8.101 h -20.48 v 8.101 c 0,8.995 0.221,10.583 2.019,11.133 l 5.529,1.872 v 0.967 c -2.971,-0.272 -7.605,-0.544 -10.033,-0.544 -3.527,0 -7.537,0.272 -10.858,0.544 v -0.967" />
    <path
       id="path34"
       fill="#FFFFFE"
       d="m 264.475,82.453 c 0,-6.506 -0.205,-6.996 -1.735,-7.471 l -5.81,-1.949 v -0.959 c 5.74,0.273 11.004,0.559 16.258,0.559 6.577,0 13.083,-0.286 19.167,-0.559 -0.068,1.721 -0.212,4.22 -0.212,5.255 0,1.036 0.144,3.395 0.212,4.983 h -0.969 l -1.796,-5.196 c -0.692,-1.93 -1.25,-1.93 -9.207,-1.93 -4.007,0 -7.195,0.067 -9.75,0.136 -0.147,2.421 -0.352,4.982 -0.352,7.88 v 8.514 h 7.196 c 8.378,0 9.132,-0.137 9.757,-1.653 l 1.801,-4.915 h 0.964 c -0.068,2.629 -0.136,5.255 -0.136,7.816 0,2.836 0.068,5.47 0.136,8.367 h -0.964 l -1.801,-5.252 c -0.625,-1.525 -1.379,-1.668 -9.757,-1.668 h -7.196 v 9.419 c 0,3.179 0.205,6.359 0.352,9.265 3.25,0.073 6.502,0.283 9.613,0.283 7.397,0 8.435,-0.079 9.133,-0.895 0.833,-1.044 1.588,-3.262 2.841,-7.34 h 0.964 c -0.142,2.003 -0.42,4.078 -0.42,6.092 v 5.249 c -3.593,-0.273 -14.252,-0.544 -18.121,-0.544 -6.086,0 -12.721,0.271 -17.713,0.544 v -0.967 l 5.332,-1.789 c 1.929,-0.633 2.213,-0.905 2.213,-6.237 V 82.453" />
    <path
       id="path36"
       fill="#FFFFFE"
       d="m 4.938,242.715 2.675,-0.904 c 0.98,-0.316 1.116,-0.451 1.116,-3.122 v -12.58 c 0,-3.266 -0.103,-3.52 -0.863,-3.758 l -2.928,-0.982 v -0.466 c 3.063,0.127 5.873,0.262 8.726,0.262 2.851,0 5.704,-0.135 8.521,-0.262 -0.041,0.788 -0.076,1.619 -0.076,2.415 0,0.979 0.035,1.989 0.076,2.961 h -0.49 l -0.831,-2.539 c -0.387,-1.043 -0.804,-1.043 -1.776,-1.043 h -7.262 c -0.076,1.389 -0.178,2.786 -0.178,4.166 v 3.9 h 3.062 c 4.202,0 4.59,-0.071 4.902,-0.837 l 0.906,-2.465 h 0.481 c -0.033,1.317 -0.067,2.644 -0.067,3.929 0,1.423 0.034,2.741 0.067,4.193 h -0.481 l -0.906,-2.629 c -0.312,-0.765 -0.7,-0.834 -4.902,-0.834 h -3.062 v 6.569 c 0,2.671 0.143,2.806 1.185,3.122 l 2.675,0.904 v 0.483 c -1.879,-0.136 -3.334,-0.279 -5.384,-0.279 -1.708,0 -3.376,0.143 -5.186,0.279 v -0.483" />
    <path
       id="path38"
       fill="#FFFFFE"
       d="m 28.787,242.715 2.674,-0.904 c 0.973,-0.316 1.116,-0.451 1.116,-3.122 v -12.58 c 0,-3.266 -0.109,-3.52 -0.871,-3.758 l -2.919,-0.982 v -0.466 c 1.286,0.127 2.919,0.262 4.798,0.262 1.804,0 3.79,-0.262 6.255,-0.262 4.586,0 7.574,1.863 7.574,5.347 0,3.505 -2.504,5.173 -5.697,5.684 l 4.792,7.166 c 2.021,3.028 2.191,3.266 4.138,3.615 v 0.483 c -0.797,-0.069 -1.626,-0.136 -2.43,-0.136 -0.83,0 -1.708,0.067 -2.572,0.136 -2.227,-3.749 -5.324,-8.194 -7.473,-11.009 h -2.675 v 3.993 c 0,4.517 0.102,5.313 1.008,5.595 l 2.783,0.938 v 0.483 c -1.497,-0.136 -3.831,-0.279 -5.044,-0.279 -1.776,0 -3.79,0.143 -5.457,0.279 z m 6.71,-11.681 h 2.362 c 3.233,0 6.22,-0.512 6.22,-4.34 0,-3.064 -2.117,-4.382 -5.383,-4.382 -1.117,0 -2.157,0.039 -3.199,0.039 v 8.683" />
    <path
       id="path40"
       fill="#FFFFFE"
       d="m 54.357,242.715 c 0.829,-0.314 1.81,-0.7 2.641,-1.142 3.028,-7.126 6.778,-15.124 9.282,-21.379 h 0.763 c 2.776,7.227 5.907,14.457 8.861,21.506 l 2.919,1.015 v 0.483 c -1.844,-0.136 -3.647,-0.279 -5.492,-0.279 -1.564,0 -3.089,0.143 -4.654,0.279 v -0.483 c 0.863,-0.213 2.361,-0.667 3.403,-1.074 -0.415,-1.463 -1.526,-4.723 -2.016,-5.775 -1.462,-0.034 -2.953,-0.068 -4.416,-0.068 -1.458,0 -2.879,0.034 -4.336,0.068 -0.946,1.771 -1.498,3.821 -1.981,5.775 l 2.982,1.074 v 0.483 c -1.356,-0.136 -2.709,-0.279 -4.098,-0.279 -1.286,0 -2.571,0.143 -3.858,0.279 z m 11.433,-17.477 -3.995,9.209 h 7.82 l -3.825,-9.209" />
    <path
       id="path42"
       fill="#FFFFFE"
       d="m 107.026,221.54 -2.328,0.845 c -0.762,0.272 -1.109,0.628 -1.15,1.246 -0.102,2.818 -0.382,8.969 -0.382,10.985 0,1.436 0,5.425 0.069,9.384 h -0.83 c -2.226,-3.301 -4.621,-6.467 -6.983,-9.665 l -7.057,-9.485 h -0.068 v 3.892 c 0,4.586 0.068,11.436 0.17,12.094 0.107,0.558 0.346,0.839 1.361,1.145 l 2.286,0.735 v 0.481 c -1.525,-0.135 -3.083,-0.277 -4.621,-0.277 -1.49,0 -2.954,0.142 -4.444,0.277 v -0.481 l 2.64,-1.017 c 0.484,-0.16 0.797,-0.475 0.831,-0.796 0.143,-1.1 0.382,-6.287 0.382,-10.739 v -6.88 l -0.45,-0.694 c -1.076,-0.483 -2.158,-0.866 -3.267,-1.221 v -0.467 c 1.109,0.128 2.225,0.264 3.335,0.264 1.041,0 2.089,-0.136 3.131,-0.264 0.659,1.205 1.388,2.32 2.225,3.429 l 9.834,13.202 0.068,-0.066 v -8.412 c 0,-1.667 -0.034,-3.383 -0.136,-5.076 -0.068,-0.966 -0.347,-1.248 -1.354,-1.667 l -2.294,-0.943 v -0.467 c 1.423,0.128 2.88,0.264 4.309,0.264 1.558,0 3.124,-0.136 4.723,-0.264 v 0.638" />
    <path
       id="path44"
       fill="#FFFFFE"
       d="m 114.545,242.715 2.681,-0.904 c 0.865,-0.316 0.974,-0.451 1.001,-3.122 0.042,-2.093 0.11,-4.209 0.11,-6.293 0,-2.082 -0.068,-4.205 -0.11,-6.287 -0.068,-3.266 -0.095,-3.52 -0.762,-3.758 l -2.92,-0.982 v -0.466 c 1.668,0.127 3.369,0.262 5.323,0.262 1.736,0 3.437,-0.135 5.173,-0.262 v 0.466 l -2.918,0.982 c -0.663,0.238 -0.697,0.492 -0.765,3.758 -0.034,2.082 -0.102,4.205 -0.102,6.287 0,2.084 0.068,4.2 0.102,6.293 0.034,2.671 0.136,2.806 1.007,3.122 l 2.676,0.904 v 0.483 c -1.625,-0.136 -3.649,-0.279 -5.173,-0.279 -1.736,0 -3.757,0.143 -5.323,0.279 z m 14.354,0 c 1.947,-0.553 2.573,-0.734 2.573,-0.973 0,-0.271 -0.279,-0.49 -0.593,-0.838 l -8.756,-9.514 7.327,-6.677 c 1.26,-1.142 1.954,-1.87 1.954,-2.22 0,-0.385 -0.974,-0.598 -2.437,-1.124 v -0.466 c 1.497,0.127 3.029,0.262 4.522,0.262 1.29,0 2.577,-0.135 3.856,-0.262 v 0.466 c -0.938,0.247 -2.43,0.636 -3.788,1.819 l -8.236,7.194 10.221,10.87 c 0.204,0.219 0.729,0.669 0.83,0.696 0.354,0.18 1.287,0.554 2.157,0.767 v 0.483 c -1.667,-0.136 -3.41,-0.279 -5.109,-0.279 -1.527,0 -3.024,0.143 -4.521,0.279 v -0.483" />
    <path
       id="path46"
       fill="#FFFFFE"
       d="m 144.159,242.715 2.674,-0.904 c 0.974,-0.316 1.116,-0.451 1.116,-3.122 v -12.58 c 0,-3.266 -0.108,-3.52 -0.87,-3.758 l -2.92,-0.982 v -0.466 c 3.054,0.127 5.873,0.262 8.724,0.262 2.846,0 5.698,-0.135 8.514,-0.262 -0.033,0.788 -0.067,1.619 -0.067,2.415 0,0.979 0.034,1.989 0.067,2.961 h -0.489 l -0.837,-2.539 c -0.383,-1.043 -0.798,-1.043 -1.77,-1.043 h -7.261 c -0.075,1.389 -0.17,2.786 -0.17,4.166 v 3.9 h 3.056 c 4.198,0 4.587,-0.071 4.9,-0.837 l 0.903,-2.465 h 0.484 c -0.033,1.317 -0.067,2.644 -0.067,3.929 0,1.423 0.034,2.741 0.067,4.193 h -0.484 l -0.903,-2.629 c -0.313,-0.765 -0.702,-0.834 -4.9,-0.834 h -3.056 v 6.569 c 0,2.671 0.135,2.806 1.184,3.122 l 2.667,0.904 v 0.483 c -1.872,-0.136 -3.335,-0.279 -5.383,-0.279 -1.701,0 -3.377,0.143 -5.179,0.279 v -0.483" />
    <path
       id="path48"
       fill="#FFFFFE"
       d="m 192.287,221.369 -1.531,0.603 c -0.898,0.379 -1.388,0.685 -1.422,1.42 -0.069,1.949 0,4.799 -0.069,10.977 -0.068,6.746 -3.376,9.246 -8.548,9.246 -5.044,0 -8.554,-2.187 -8.554,-7.496 v -9.772 c 0,-2.921 -0.103,-3.615 -1.076,-3.996 l -2.505,-0.982 v -0.466 c 1.709,0.127 3.342,0.262 4.976,0.262 1.837,0 3.647,-0.135 5.484,-0.262 v 0.466 l -1.599,0.603 c -1.906,0.725 -2.184,0.871 -2.252,2.081 -0.109,2.056 -0.109,5.03 -0.109,10.394 0,4.449 1.007,7.364 6.541,7.364 3.647,0 5.839,-2.26 5.839,-6.423 0,-4.285 -0.034,-9.81 -0.32,-12.2 -0.069,-0.632 -0.585,-0.91 -1.525,-1.216 l -1.913,-0.603 v -0.466 c 1.492,0.127 2.99,0.262 4.521,0.262 1.32,0 2.674,-0.135 4.062,-0.262 v 0.466" />
    <path
       id="path50"
       fill="#FFFFFE"
       d="m 198.775,242.715 2.685,-0.904 c 0.969,-0.316 1.11,-0.451 1.11,-3.122 v -12.58 c 0,-3.266 -0.102,-3.52 -0.87,-3.758 l -2.925,-0.982 v -0.466 c 1.293,0.127 2.925,0.262 4.799,0.262 1.803,0 3.789,-0.262 6.259,-0.262 4.591,0 7.58,1.863 7.58,5.347 0,3.505 -2.507,5.173 -5.706,5.684 l 4.798,7.166 c 2.019,3.028 2.19,3.266 4.135,3.615 v 0.483 c -0.8,-0.069 -1.633,-0.136 -2.433,-0.136 -0.829,0 -1.702,0.067 -2.569,0.136 -2.229,-3.749 -5.314,-8.194 -7.473,-11.009 h -2.674 v 3.993 c 0,4.517 0.108,5.313 1.007,5.595 l 2.782,0.938 v 0.483 c -1.497,-0.136 -3.823,-0.279 -5.042,-0.279 -1.77,0 -3.783,0.143 -5.463,0.279 z m 6.716,-11.681 h 2.367 c 3.225,0 6.214,-0.512 6.214,-4.34 0,-3.064 -2.115,-4.382 -5.393,-4.382 -1.106,0 -2.147,0.039 -3.188,0.039 v 8.683" />
    <path
       id="path52"
       fill="#FFFFFE"
       d="m 225.79,220.903 c 3.023,0.128 6.012,0.263 9.04,0.263 3.024,0 6.007,-0.135 9.035,-0.263 v 5.892 h -0.487 l -1.05,-2.776 c -0.482,-1.177 -0.828,-1.321 -6.034,-1.321 v 15.151 c 0,1.735 0.067,2.646 0.272,3.132 0.204,0.447 0.936,0.873 3.584,1.734 v 0.483 c -1.639,-0.136 -3.166,-0.279 -5.32,-0.279 -2.16,0 -3.68,0.143 -5.325,0.279 v -0.483 c 2.649,-0.861 3.414,-1.287 3.584,-1.734 0.21,-0.486 0.278,-1.397 0.278,-3.132 v -15.151 c -5.223,0 -5.553,0.144 -6.047,1.321 l -1.037,2.776 h -0.493 v -5.892" />
    <path
       id="path54"
       fill="#FFFFFE"
       d="m 262.93,242.715 c 0.828,-0.314 1.802,-0.7 2.631,-1.142 3.02,-7.126 6.777,-15.124 9.281,-21.379 h 0.763 c 2.786,7.227 5.907,14.457 8.868,21.506 l 2.918,1.015 v 0.483 c -1.838,-0.136 -3.644,-0.279 -5.495,-0.279 -1.566,0 -3.091,0.143 -4.657,0.279 v -0.483 c 0.88,-0.213 2.366,-0.667 3.411,-1.074 -0.416,-1.463 -1.531,-4.723 -2.015,-5.775 -1.465,-0.034 -2.962,-0.068 -4.416,-0.068 -1.451,0 -2.89,0.034 -4.345,0.068 -0.938,1.771 -1.497,3.821 -1.987,5.775 l 2.994,1.074 v 0.483 c -1.356,-0.136 -2.709,-0.279 -4.103,-0.279 -1.285,0 -2.573,0.143 -3.848,0.279 z m 11.425,-17.477 -3.996,9.209 h 7.819 l -3.823,-9.209" />
    <path
       id="path56"
       fill="#FFFFFE"
       d="m 292.632,242.715 1.847,-0.667 c 1.214,-0.441 1.352,-0.619 1.531,-1.761 0.87,-5.432 1.769,-14.363 1.769,-16.934 0,-0.621 -0.246,-1.002 -0.899,-1.245 l -1.985,-0.739 v -0.466 c 2.229,0.127 4.559,0.228 6.641,0.262 2.15,5.459 4.555,10.836 6.987,16.234 2.747,-5.329 5.148,-10.775 7.437,-16.234 2.052,-0.034 4.338,-0.135 6.675,-0.262 v 0.466 l -1.531,0.603 c -1.424,0.55 -1.702,0.76 -1.702,1.381 0,2.401 1.532,15.08 1.912,17.278 0.184,1.069 0.593,1.317 1.422,1.566 l 1.879,0.518 v 0.483 c -1.599,-0.136 -3.233,-0.279 -4.867,-0.279 -1.633,0 -3.232,0.143 -4.832,0.279 v -0.483 l 1.708,-0.587 c 1.179,-0.386 1.524,-0.876 1.524,-1.19 0,-1.737 -1.632,-14.94 -1.871,-16.641 h -0.074 c -3.057,6.568 -5.697,12.555 -8.303,18.901 h -0.457 c -2.47,-6.602 -5.391,-12.931 -8.209,-19.282 h -0.069 c -0.447,4.589 -1.101,14.38 -1.101,16.715 0,0.798 0.313,1.146 1.28,1.464 l 1.812,0.62 v 0.483 c -1.497,-0.136 -2.961,-0.279 -4.452,-0.279 -1.361,0 -2.71,0.143 -4.072,0.279 v -0.483" />
    <path
       id="path58"
       fill="#FFFFFE"
       d="m 344.739,242.715 1.837,-0.667 c 1.217,-0.441 1.354,-0.619 1.531,-1.761 0.872,-5.432 1.772,-14.363 1.772,-16.934 0,-0.621 -0.248,-1.002 -0.9,-1.245 l -1.988,-0.739 v -0.466 c 2.226,0.127 4.56,0.228 6.642,0.262 2.158,5.459 4.554,10.836 6.984,16.234 2.747,-5.329 5.154,-10.775 7.444,-16.234 2.05,-0.034 4.344,-0.135 6.67,-0.262 v 0.466 l -1.522,0.603 c -1.431,0.55 -1.711,0.76 -1.711,1.381 0,2.401 1.525,15.08 1.914,17.278 0.17,1.069 0.594,1.317 1.42,1.566 l 1.881,0.518 v 0.483 c -1.6,-0.136 -3.233,-0.279 -4.867,-0.279 -1.633,0 -3.233,0.143 -4.831,0.279 v -0.483 l 1.706,-0.587 c 1.177,-0.386 1.527,-0.876 1.527,-1.19 0,-1.737 -1.635,-14.94 -1.881,-16.641 h -0.059 c -3.062,6.568 -5.712,12.555 -8.318,18.901 h -0.449 c -2.464,-6.602 -5.39,-12.931 -8.207,-19.282 h -0.069 c -0.449,4.589 -1.11,14.38 -1.11,16.715 0,0.798 0.312,1.146 1.294,1.464 l 1.803,0.62 v 0.483 c -1.496,-0.136 -2.955,-0.279 -4.451,-0.279 -1.354,0 -2.709,0.143 -4.062,0.279 v -0.483" />
    <path
       id="path60"
       fill="#FFFFFE"
       d="m 381.376,242.715 c 0.837,-0.314 1.812,-0.7 2.64,-1.142 3.029,-7.126 6.781,-15.124 9.287,-21.379 h 0.76 c 2.777,7.227 5.914,14.457 8.863,21.506 l 2.928,1.015 v 0.483 c -1.856,-0.136 -3.659,-0.279 -5.495,-0.279 -1.564,0 -3.105,0.143 -4.661,0.279 v -0.483 c 0.865,-0.213 2.363,-0.667 3.404,-1.074 -0.418,-1.463 -1.527,-4.723 -2.008,-5.775 -1.459,-0.034 -2.962,-0.068 -4.418,-0.068 -1.464,0 -2.886,0.034 -4.349,0.068 -0.94,1.771 -1.491,3.821 -1.981,5.775 l 2.994,1.074 v 0.483 c -1.353,-0.136 -2.715,-0.279 -4.104,-0.279 -1.287,0 -2.572,0.143 -3.86,0.279 z m 11.435,-17.477 -4,9.209 h 7.832 l -3.832,-9.209" />
    <path
       id="path62"
       fill="#FFFFFE"
       d="m 410.612,242.715 2.681,-0.904 c 0.87,-0.316 0.973,-0.451 1.006,-3.122 0.034,-2.093 0.108,-4.209 0.108,-6.293 0,-2.082 -0.074,-4.205 -0.108,-6.287 -0.062,-3.266 -0.108,-3.52 -0.76,-3.758 l -2.927,-0.982 v -0.466 c 1.668,0.127 3.375,0.262 5.327,0.262 1.729,0 3.436,-0.135 5.172,-0.262 v 0.466 l -2.909,0.982 c -0.67,0.238 -0.698,0.492 -0.772,3.758 -0.034,2.082 -0.103,4.205 -0.103,6.287 0,2.084 0.069,4.2 0.103,6.293 0.034,2.671 0.136,2.806 1,3.122 l 2.681,0.904 v 0.483 c -1.632,-0.136 -3.647,-0.279 -5.172,-0.279 -1.748,0 -3.755,0.143 -5.327,0.279 v -0.483" />
    <path
       id="path64"
       fill="#FFFFFE"
       d="m 451.857,221.54 -2.336,0.845 c -0.76,0.272 -1.106,0.628 -1.149,1.246 -0.101,2.818 -0.374,8.969 -0.374,10.985 0,1.436 0,5.425 0.068,9.384 h -0.837 c -2.217,-3.301 -4.617,-6.467 -6.982,-9.665 l -7.053,-9.485 h -0.078 v 3.892 c 0,4.586 0.078,11.436 0.181,12.094 0.108,0.558 0.346,0.839 1.356,1.145 l 2.29,0.735 v 0.481 c -1.531,-0.135 -3.096,-0.277 -4.62,-0.277 -1.505,0 -2.951,0.142 -4.458,0.277 v -0.481 l 2.656,-1.017 c 0.484,-0.16 0.796,-0.475 0.831,-0.796 0.135,-1.1 0.379,-6.287 0.379,-10.739 v -6.88 l -0.448,-0.694 c -1.083,-0.483 -2.157,-0.866 -3.267,-1.221 v -0.467 c 1.11,0.128 2.217,0.264 3.336,0.264 1.04,0 2.081,-0.136 3.135,-0.264 0.647,1.205 1.376,2.32 2.212,3.429 l 9.844,13.202 0.067,-0.066 v -8.412 c 0,-1.667 -0.033,-3.383 -0.144,-5.076 -0.068,-0.966 -0.349,-1.248 -1.353,-1.667 l -2.288,-0.943 v -0.467 c 1.417,0.128 2.881,0.264 4.31,0.264 1.566,0 3.123,-0.136 4.722,-0.264 v 0.638" />
    <path
       id="path66"
       fill="#FFFFFE"
       d="m 0.06,139.103 v -3.874 c 350.642,0.118 200.375,0.082 450.799,0.13 l 0.061,3.744 z" />
    <path
       id="path68"
       fill="#FFFFFE"
       d="m 357.221,10.395 c 0.361,0 0.937,0.145 1.299,0.145 0.361,0 2.076,0.732 2.851,1.201 0.65,0.397 1.342,1.042 2.153,1.347 1.066,0.415 3.078,0.773 3.439,0.773 0.632,0 4.422,-0.723 4.475,-0.723 1.48,0 4.75,2.104 5.778,3.494 0.342,0.469 0.502,1.486 0.502,1.847 0,0.361 -0.146,1.371 -0.146,1.732 0,0.667 -0.865,1.733 -1.514,1.733 -0.795,0 -1.734,-3.075 -1.984,-3.345 -1.32,-1.48 -5.433,-3.585 -7.543,-3.585 -0.181,0 -1.515,0.091 -1.515,0.866 0,1.624 4.185,2.275 4.185,3.899 0,0.522 -0.867,0.865 -1.156,0.865 -0.991,0 -3.526,-2.098 -3.995,-2.278 -1.407,-0.56 -3.019,-0.899 -4.452,-1.186 -1.744,-0.042 -2.016,0 -2.153,-0.001 -2.479,0.648 -4.51,2.901 -6.121,5.167 -0.406,0.572 -0.383,1.907 -0.744,1.907 -0.36,0 -1.805,-0.433 -2.164,-0.433 -3.067,0 -4.241,2.129 -4.241,4.835 0,0.758 -0.377,1.617 -0.882,2.212 -0.379,0.452 -1.445,1.037 -1.807,1.037 -1.046,0 -1.732,-0.794 -1.732,-1.371 0,-0.362 0.044,-0.649 0.144,-1.012 0.098,-0.347 0.901,-1.885 1.496,-2.643 2.563,-3.248 6.104,-6.136 9.947,-8.157 0.632,-0.324 1.644,-0.272 2.313,-0.579 0.361,-0.162 2.99,-1.919 2.99,-2.767 0,-0.361 -0.673,-0.942 -1.094,-1.083 0,0 -4.287,0.19 -4.658,0.124 -0.066,-0.058 -0.167,-0.195 -0.167,-0.555 0,-0.687 0.912,-1.066 1.318,-1.378 1.119,-0.861 4.022,-2.088 5.178,-2.088" />
    <path
       id="path70"
       fill="#FFFFFE"
       d="m 394.1,12.128 c 0.361,0 0.57,0.059 0.894,0.294 0.168,0.159 0.207,0.24 0.197,0.423 -0.005,0.166 -0.043,0.282 -0.197,0.378 -1.448,0.463 -4.861,5.051 -5.152,5.906 -0.296,0.867 -0.577,2.093 -0.577,2.453 0,0.596 0.27,1.228 0.794,1.228 0.361,0 1.589,-0.54 2.295,-0.685 1.298,-0.27 3.55,-0.615 3.911,-0.615 2.309,0 6.135,2.13 6.135,4.331 0,0.36 -0.014,0.857 -0.322,1.286 -0.297,0.412 -1.066,-0.741 -1.508,-0.967 -0.651,-0.331 -1.85,-0.608 -2.211,-0.608 -3.502,0 -3.916,2.31 -6.351,2.31 -1.083,0 -1.843,-0.063 -2.981,-1.471 -0.576,-0.703 -0.35,-1.944 -0.819,-2.901 -0.235,-0.486 -0.983,-0.851 -1.345,-1.285 -0.342,-0.415 -0.717,-1.037 -0.881,-1.614 -0.107,-0.415 -0.211,-0.978 -0.067,-1.577 0.51,-2.135 1.144,-3.421 2.796,-4.666 0.488,-0.369 4.253,-2.22 5.389,-2.22" />
    <path
       id="path72"
       fill="#FFFFFE"
       d="m 397.709,29.16 c 0.36,0 1.86,0.583 2.759,0.814 3.651,0.941 5.139,5.263 5.864,8.053 0.084,0.323 0.193,0.728 0.193,1.089 0,0.361 -0.013,0.786 -0.171,1.39 0,0 -0.057,0.347 -0.418,0.347 -0.866,0 -1.645,-0.677 -2.653,-1.904 -1.263,-1.55 -1.916,-3.558 -3.09,-5.2 -0.684,-0.937 -1.697,-1.802 -2.539,-2.554 -0.256,-0.231 -1.132,-0.79 -1.173,-1.313 -0.022,-0.295 0.04,-0.451 0.157,-0.545 0.231,-0.187 0.71,-0.177 1.071,-0.177" />
    <path
       id="path74"
       fill="#FFFFFE"
       d="m 405.287,45.761 c 1.443,0 3.752,2.02 3.752,3.464 0,0.396 -0.407,0.937 -0.643,0.956 -2.597,0.27 -3.975,2.924 -3.975,4.746 0,2.003 1.34,3.559 3.557,4.573 0.469,0.215 1.217,0.297 1.578,0.297 0.361,0 1.467,-0.35 2.262,-0.801 1.281,-0.758 1.939,-3.163 3.543,-2.54 1.223,1.603 1.617,2.746 1.617,4.101 0,2.165 -4.818,2.959 -5.414,2.959 -2.272,0 -5.52,-1.398 -7.524,-3.779 -0.829,-0.993 -1.556,-2.261 -2.075,-3.391 -0.588,-1.278 -1.008,-2.881 -1.008,-3.802 0,-1.624 1.839,-6.783 4.33,-6.783" />
    <path
       id="path76"
       fill="#FFFFFE"
       d="m 396.481,61.999 c 0,-0.36 -0.164,-1.75 -0.344,-2.471 -0.217,-0.831 -1.076,-1.464 -1.596,-1.202 -0.187,0.096 -0.947,1.328 -0.947,1.942 0,0.361 0.115,1.756 -0.191,2.424 -0.686,1.515 -3.741,3.421 -5.005,3.421 -0.378,0 -1.155,-0.234 -1.155,-1.298 0,-0.362 0.722,-1.011 0.722,-1.371 0,-0.596 -0.484,-0.476 -1.164,-0.899 0,0 -0.27,-0.139 0,-0.506 0.976,-0.406 1.973,-0.528 2.983,-0.745 1.011,-0.217 2.8,-2.669 2.8,-3.769 0,-0.379 -1.011,-1.515 -1.877,-1.515 -0.361,0 -0.248,0.191 -0.248,0.191 0.196,0.996 -0.445,2.837 -1.311,3.523 -0.523,0.415 -1.328,0.761 -1.687,0.761 -0.36,0 -1.016,-0.076 -1.179,-0.125 -1.968,-0.593 -2.503,-2.185 -2.503,-3.556 0,-0.471 0.184,-0.296 -0.193,-0.791 -0.388,0.107 -2.693,1.133 -2.693,2.162 0,0.812 2.453,2.165 2.453,2.741 0,1.498 -2.309,0.308 -2.309,1.589 0,0.36 0.866,4.024 0.866,4.385 v 2.201 c 0,3.23 2.165,2.31 2.165,5.251 0,0.595 -1.334,2.316 -1.785,2.498 -0.432,0.161 -0.64,0.409 -1,0.718 -0.297,0.39 -0.25,0.437 -0.56,0.969 -0.495,0.843 -1.148,0.771 -1.752,0.656 -1.467,-0.282 -2.139,-0.534 -3.348,-0.534 -0.359,0 -1.226,0.964 -1.588,0.964 -0.359,0 -0.885,-0.213 -1.211,-0.555 -0.179,-0.182 -0.798,-2.156 -1.881,-2.156 -0.359,0 -2.318,0.904 -2.681,0.904 -1.334,0 -2.959,-1.624 -2.959,-2.888 0,-0.09 0.008,-1.265 1.016,-1.265 0.741,0 0.484,0.878 1.226,1.265 0.901,-0.589 2.162,-2.164 2.522,-2.164 0.361,0 0.521,0.026 0.756,0.17 0.542,0.324 1.265,1.797 1.265,2.717 0,0.866 1.01,1.588 1.877,1.588 1.822,0 2.887,-1.371 2.887,-3.105 0,-0.36 -0.723,-2.886 -0.723,-3.248 0,-0.359 -0.002,-0.197 0.035,-0.353 -0.035,-0.447 -0.035,-0.886 -0.09,-1.156 0.051,-0.125 0.488,-4.841 0.488,-5.203 0,-2.471 -1.298,-4.853 -1.298,-7.433 0,-1.065 0.193,-3.864 1.168,-4.783 1.966,-1.858 6.445,-4.167 10.018,-4.167 0.361,0 2.603,0.517 3.722,1.041 0.344,0.144 1.422,1.014 1.924,1.123 0.734,-0.611 1.211,-2.236 1.211,-3.174 0,-3.284 -4.186,-5.792 -4.186,-9.528 0,-0.36 0.721,-4.401 0.721,-4.762 0,-0.362 -0.127,-1.112 -0.198,-1.67 -0.398,-2.833 -3.808,-5.836 -6.153,-5.836 -0.36,0 -6.135,0.577 -6.495,0.577 -3.574,0 -5.846,-2.31 -9.744,-2.31 -0.36,0 -3.92,0.488 -5.778,0.614 -7.94,0.559 -11.904,6.279 -11.904,14.11 0,0.36 0.201,1.679 0.038,2.363 -0.92,3.646 -3.358,6.207 -3.358,9.474 l 0.434,13.639 c -0.289,4.092 -3.176,1.914 -3.176,5.775 0,0.36 0.145,2.196 0.326,3.189 0.108,0.594 0.482,1.24 0.734,1.564 0.145,0.198 1.395,0.805 1.754,0.805 0.992,0 1.567,-1.904 2.317,-2.166 0.812,0.232 0.22,2.129 0.343,3.106 0.253,2.017 1.504,5.961 1.637,6.367 0.237,0.725 0.508,1.199 0.725,1.74 0.342,0.867 1.113,2.139 1.113,2.5 0,0.064 0.402,1.083 1.047,2.662 0.041,-0.127 0.101,-0.158 0.082,-0.218 h 0.361 c 0.846,0.716 10.436,10.191 14.154,10.259 h 5.628 c 2.346,0 5.865,-1.353 5.865,-4.763 0,-2.978 -3.321,-3.464 -5.34,-3.464 -0.361,0 -2.904,0.536 -3.683,0.576 -0.378,0.02 -2.526,-0.576 -2.526,-1.442 0,-1.246 3.213,-1.444 3.971,-1.444 0.361,0 4.257,1.009 4.619,1.009 1.353,0 3.392,-0.811 3.392,-2.886 0,-1.136 -1.822,-1.876 -2.886,-1.876 -1.336,0 -2.785,1.226 -4.354,1.226 -0.361,0 -1.921,-0.75 -2.281,-0.75 -0.361,0 -2.725,1.113 -3.373,1.094 -0.571,-0.017 -2.295,-1.749 -2.656,-1.749 -0.362,0 -1.484,1.054 -1.844,1.054 -0.362,0 -0.463,-0.416 -0.717,-0.524 0.108,-0.256 0.293,-2.455 1.736,-2.455 0.362,0 1.651,0.948 2.012,0.948 2.039,0 1.822,-1.731 3.537,-1.731 2.02,0 2.184,2.454 3.754,2.454 1.28,0 1.713,-2.311 3.535,-2.311 1.481,0 2.94,1.733 3.753,1.733 0.83,0 1.696,-1.154 3.175,-1.154 0.361,0 0.889,0.797 1.031,1.248 0.127,0.415 -0.003,0.844 -0.003,1.278 0,0.433 0.166,0.971 0.402,1.205 0.197,0.198 0.23,0.455 0.591,0.455 h 1.714 c 1.986,0 7.142,-9.905 7.25,-10.303 0.271,-0.993 0.634,-2.617 0.634,-2.977 0,-0.361 0.272,-1.953 0.146,-4.262 -0.126,-2.636 1.298,-4.58 1.298,-7.215 m -31.412,-1.377 c -0.161,-0.102 -0.342,-0.351 -0.342,-0.351 0.605,-0.998 1.732,-2.349 1.732,-3.179 0,-0.577 -1.524,-1.716 -1.934,-1.661 -0.877,0.287 -0.214,1.526 -0.287,2.103 -0.18,1.299 -1.894,3.095 -3.193,3.095 -0.631,0 -2.254,-0.71 -2.615,-1.088 -1.514,-1.605 -0.777,-1.836 -0.777,-3.243 0,-0.36 -0.145,-0.217 -0.123,-0.454 -0.092,0.021 -0.092,-0.123 -0.454,-0.123 -0.957,0 -1.878,1.516 -1.878,2.093 0,1.1 0.72,2.492 2.304,2.855 -0.47,1.001 -0.805,1.114 -1.509,1.114 -2.723,0 -2.399,-3.608 -3.608,-3.608 -0.361,0 -0.721,0.289 -1.082,0.289 -0.362,0 -1.057,-0.667 -1.381,-0.937 -0.596,-0.488 -0.496,-1.031 -0.496,-1.373 0,-4.998 4.074,-7.885 9.744,-8.228 1.164,0.145 1.299,0 1.446,0 1.16,0.145 2.591,0.225 3.638,0.766 1.805,0.92 4.498,2.597 6.03,4.457 0.253,0.306 0.793,2.536 0.793,3.221 0,0.361 -1.013,4.373 -1.01,5.558 10e-4,0.853 0.722,4.185 0.722,4.547 0,0.74 0.094,1.972 -0.621,2.953 -0.636,-0.085 -2.845,-3.621 -2.845,-4.902 0,-1.894 1.734,-2.202 1.734,-4.763 0,-0.47 -0.09,-0.867 -0.578,-0.867 -0.361,0 -1.893,1.733 -2.254,1.729 0,0 -0.776,0.24 -1.156,-0.003 m 7.957,44.501 c -2.678,-0.017 -11.367,-1.35 -13.996,-3.02 3.179,7.364 6.419,14.533 6.923,14.533 2.309,0 9.023,-8.192 9.023,-10.321 0,-0.362 -0.162,-0.622 -0.375,-0.89 -0.617,-0.19 -1.142,-0.302 -1.575,-0.302 m -13.996,-3.02 c -2.174,-5.036 -4.303,-10.127 -5.526,-13.119 -0.015,0.045 -0.037,0.057 -0.037,0.153 0,0.36 3.564,11.669 5.531,12.949 0.01,0.006 0.024,0.011 0.032,0.017" />
    <path
       id="path78"
       fill="#FFFFFE"
       d="m 357.287,49.658 c 1.192,-0.092 1.723,-0.061 2.18,0 1.523,0.363 4.537,1.642 4.537,3.609 0,0.36 -0.071,0.721 -0.432,0.721 -0.361,0 -1.317,-1.01 -1.678,-1.012 h -0.968 c -0.118,0.125 -0.098,-0.07 -0.098,0.291 0,0.36 0.289,0.36 0.289,0.721 0,0.361 -0.144,0.361 -0.168,0.56 -1.539,-0.2 -2.342,0.178 -4.135,0.579 -0.027,-0.489 -0.027,-0.922 -0.021,-1.328 -0.129,-0.12 -0.078,-0.098 -0.438,-0.098 -1.156,0 -2.021,2.165 -3.177,2.165 -0.865,0 -1.298,-0.794 -1.298,-1.3 0,-1.552 1.847,-3.746 3.362,-4.433 0.541,-0.234 1.315,-0.329 2.045,-0.475" />
    <path
       id="path80"
       fill="#FFFFFE"
       d="m 388.038,50.668 c 0.36,0 0.692,0.272 1.162,0.325 1.227,0.146 3.529,1.335 3.529,2.923 0,0.362 -0.152,1.043 -0.495,1.66 -0.639,-0.598 -1.356,-1.459 -2.2,-2.168 h -0.386 c -0.116,0.126 -0.239,-0.07 -0.239,0.291 0,0.362 0.136,0.473 0.288,0.806 -0.165,0.185 -0.144,0.35 -0.506,0.35 -0.214,0 -1.73,-0.723 -2.596,-0.723 -1.517,0 -3.465,1.155 -3.898,1.155 -0.361,0 -0.649,-0.432 -0.649,-0.794 0,-1.732 2.742,-1.298 2.742,-2.597 0,-0.668 1.75,-0.939 1.805,-0.939 0.36,0 1.082,-0.289 1.443,-0.289" />
    <path
       id="path82"
       fill="#FFFFFE"
       d="m 360.685,55.287 c 0.973,0 1.01,0.884 1.01,1.156 0,0.668 -0.506,1.442 -1.084,1.442 -1.045,0 -1.225,-0.829 -1.225,-1.299 0,-0.865 0.451,-1.299 1.299,-1.299" />
    <path
       id="path84"
       fill="#FFFFFE"
       d="m 386.595,55.432 c 0.829,0 1.35,0.794 1.37,1.371 0.019,0.573 -0.793,1.228 -1.154,1.228 -0.667,0 -1.139,-0.858 -1.156,-1.444 -0.008,-0.289 0.415,-1.155 0.94,-1.155" />
    <path
       id="path86"
       fill="#FFFFFE"
       d="m 381.326,74.413 c 0,1.156 -0.903,2.093 -1.949,2.093 -0.361,0 -0.373,0.001 -0.506,-0.155 -0.167,-0.195 0.011,-0.656 0.011,-0.656 -0.01,-0.362 0.571,-0.993 0.567,-1.353 -0.008,-0.658 -0.144,-1.075 -0.26,-2.44 1.551,0.604 2.137,1.05 2.137,2.511" />
    <path
       id="path88"
       fill="#FFFFFE"
       d="m 397.861,90.365 c 0.45,0.158 0.604,0.189 0.731,0.778 0.637,2.998 1.353,8.965 1.353,9.326 0,1.659 -1.435,4.638 -2.228,5.973 -1.065,1.768 -3.094,4.605 -4.863,5.93 -0.338,0.252 -5.791,3.924 -7.992,4.118 -1.563,0.139 -4.126,-2.382 -4.783,-3.344 -0.919,-1.349 -1.597,-2.791 -2.265,-4.056 -0.468,-0.884 -1.251,-2.27 -1.251,-2.632 0,-0.541 0.619,-0.99 0.927,-1.045 0.143,-0.017 3.537,-0.573 4.746,-1.095 5.503,-2.382 12.735,-6.595 14.718,-12.894 0.126,-0.413 0.408,-0.761 0.907,-1.059" />
    <path
       id="path90"
       fill="#FFFFFE"
       d="m 399.641,108.995 c 0.435,0.015 0.339,0.903 0.339,1.194 0.047,1.749 0.047,0.828 -0.039,2.016 -0.031,1.978 -1.377,4.467 -2.224,5.928 -0.812,1.407 -5.493,8.607 -8.525,8.607 -1.714,0 -3.969,-2.67 -3.969,-3.826 0,-0.847 1.191,-1.224 1.929,-1.423 0.741,-0.198 1.489,-0.428 2.156,-0.717 3.716,-1.678 6.43,-5.404 8.43,-8.725 0.462,-0.767 0.852,-2.625 1.251,-2.855 0.23,-0.132 0.351,-0.208 0.652,-0.199" />
    <path
       id="path92"
       fill="#FFFFFE"
       d="m 376.488,111.583 c 1.11,0.308 1.373,2.562 1.373,3.321 0,1.245 -1.047,5.266 -2.886,5.266 -0.362,0 -0.866,-0.359 -1.227,-0.359 -0.866,0 -2.671,1.804 -2.671,2.383 0,1.117 2.055,1.301 3.543,1.509 0.769,0.107 1.991,0.007 1.991,0.007 1.459,-1.14 1.018,-3.384 2.482,-4.721 0.285,-0.13 0.567,-0.194 1.129,-0.328 h 0.487 c 0.055,0.052 1.771,2.703 1.771,3.387 0,3.141 -7.523,4.836 -8.876,4.836 -3.411,0 -5.125,-5.666 -5.125,-7.506 0,-1.641 0.74,-2.743 2.237,-2.743 0.361,0 2.743,0.866 3.104,0.866 1.353,0 1.732,-1.478 1.732,-2.237 0,-0.36 -0.308,-1.516 -0.289,-1.877 0.055,-0.965 0.585,-1.808 1.225,-1.804" />
    <path
       id="path94"
       fill="#FFFFFE"
       d="m 330.773,62.515 c 0.401,-0.012 0.903,-0.046 1.374,0.178 0.566,0.779 0.003,2.347 1.146,3.082 0.275,0.049 0.551,0.193 0.912,0.193 1.625,0 3.031,-2.599 3.248,-2.599 0.36,0 1.027,0.436 1.652,0.606 0,0 0.115,0.274 0,0.748 -0.103,0.421 -3.119,4.149 -3.642,4.504 -0.234,0.158 -0.707,0.397 -1.158,0.579 -0.54,0.233 -1.327,0.348 -1.688,0.348 -1.731,0 -2.887,-2.382 -2.887,-3.464 0,-1.245 0.494,-2.989 1.043,-4.175" />
    <path
       id="path96"
       fill="#FFFFFE"
       d="m 351.24,106.389 c 0.228,-0.127 0.666,-0.004 0.666,-0.004 3.09,4.057 6.004,8.78 10.334,10.855 0.83,0.398 1.844,0.827 2.476,1.459 0.864,0.883 2.961,4.273 2.961,5.572 0,1.262 -1.407,1.299 -1.804,1.299 -0.776,0 -2.992,-1.091 -3.642,-1.415 -6.549,-3.393 -9.454,-11.14 -11.153,-16.694 0,0 -0.207,-0.865 0.162,-1.072" />
    <path
       id="path98"
       fill="#FFFFFE"
       d="m 342.994,107.67 c 0.866,0 2.461,2.957 2.822,3.535 0.289,0.469 3.141,4.584 3.899,5.883 1.605,2.726 6.127,8.499 6.123,8.861 0,0 0.278,0.739 -0.006,1.013 -0.131,0.126 -0.062,0.195 -0.424,0.195 -0.361,0 -1.392,0.082 -2.275,-0.787 -0.714,-0.702 -10.862,-16.12 -10.862,-17.834 0,-0.361 0.362,-0.866 0.723,-0.866" />
    <path
       id="path100"
       fill="#FFFFFE"
       d="m 353.063,86.462 c 0.025,0.083 0.468,2.298 0.468,2.66 0,0.36 0.787,1.754 1.184,2.566 0.885,1.786 2.049,3.759 3.311,5.327 1.48,1.859 4.422,4.225 6.388,5.506 2.6,1.678 5.988,2.569 8.678,2.587 0.431,0 0.957,0.111 1.572,0.301 0.215,0.268 0.374,0.529 0.374,0.89 0,2.111 -6.712,10.321 -9.02,10.321 -1.246,0 -2.858,-1.427 -3.947,-2.135 -3.389,-2.203 -6.887,-6.056 -8.925,-9.448 -1.083,-1.822 -3.511,-5.829 -3.511,-7.759 0,-0.362 0.144,-1.3 0.144,-1.661 0,-0.361 1.299,-4.691 1.299,-5.052 0,-0.361 1.443,-3.897 1.443,-4.258 l 0.542,0.155" />
    <path
       id="path102"
       fill="#FFFFFE"
       d="m 448.13,136.007 c -10e-4,-0.083 -0.174,-8.349 -6.063,-13.465 -4.448,-3.864 -17.11,-9.46 -24.674,-12.803 -3.307,-1.461 -5.696,-2.517 -6.667,-3.082 -0.365,-0.198 -1.218,-0.663 -1.192,-1.604 0.01,-0.31 0.014,-0.437 1.522,-3.864 l 0.108,-0.248 c 1.115,-2.56 2.121,-4.673 3.009,-6.537 2.464,-5.177 3.428,-7.347 2.535,-9.072 -1.057,-2.043 -4.986,-4.133 -11.842,-7.651 l -0.744,-0.382 0.077,-0.833 c 0.077,-0.844 0.773,-2.062 2.563,-4.494 l 0.581,-0.789 0.825,0.232 c 0.878,0.247 1.699,0.511 2.476,0.761 4.302,1.383 6.461,2.076 9.745,-2.405 1.929,-2.636 2.047,-6.812 1.306,-9.781 -0.654,-2.629 -1.029,-2.94 -3.111,-4.666 l -0.532,-0.439 c -0.426,-0.331 -1.219,-0.948 -1.155,-1.917 0.096,-1.392 0.541,-2.675 0.97,-3.915 0.54,-1.559 1.051,-3.032 0.909,-4.704 l -0.05,-0.611 c -0.309,-3.765 -1.13,-13.765 -5.419,-14.871 l -0.568,-0.146 -0.734,-1.581 0.24,-0.521 c 2.229,-4.816 -0.563,-11.048 -4.551,-14.291 -2.782,-2.262 -5.646,-2.722 -7.659,-1.227 l -1.303,0.967 -0.588,-1.512 c -0.68,-1.743 -1.511,-2.78 -2.473,-3.082 -0.998,-0.312 -2.336,0.089 -3.983,1.194 l -1.082,0.726 -1.2,-2.001 c -2.304,-3.089 -3.841,-4.342 -7.214,-4.134 -5.215,0.325 -11.844,1.014 -16.847,3.483 l -0.694,0.342 -0.611,-0.472 c -4.106,-3.173 -10.071,-2.637 -17.73,1.592 -2.957,1.632 -3.513,4.377 -3.881,6.193 -0.223,1.099 -0.399,1.968 -1.182,2.384 l -0.533,0.282 c -4.567,2.414 -8.88,4.695 -8.816,9.989 0.035,2.741 -1.218,3.652 -2.225,4.385 -0.662,0.481 -1.185,0.862 -1.571,1.833 -0.083,0.235 -0.131,1.161 -0.1,1.939 -0.006,2.052 0.336,3.706 0.697,5.457 0.213,1.029 0.433,2.093 0.591,3.269 0.2,1.487 -0.635,2.449 -1.372,3.299 -1.363,1.572 -3.061,3.527 0.676,11.039 l 0.319,0.642 -0.398,0.597 c -2.403,3.598 -3.657,9.625 -1.594,13.482 1.166,2.181 3.25,3.286 6.194,3.286 2.423,0 4.553,-1.411 5.963,-2.344 0.963,-0.638 1.556,-1.019 2.221,-0.987 l 0.643,0.035 0.341,0.547 c 0.706,1.134 1.545,2.24 2.356,3.31 l 0.284,0.375 -0.036,0.468 c -0.071,0.913 -0.827,1.508 -3.443,3.429 -2.862,2.104 -8.19,6.018 -8.102,8.558 0.035,1.011 2.384,4.925 3.938,7.515 2.09,3.483 3.327,5.588 3.538,6.804 l 0.497,1.346 -0.962,0.506 c -4.871,2.555 -9.578,4.619 -14.13,6.616 -14.262,6.254 -24.566,10.772 -24.509,23.529 l -2.477,0.011 c -0.063,-14.383 11.435,-19.424 25.992,-25.808 4.229,-1.855 8.595,-3.769 13.072,-6.073 -0.37,-1.036 -1.955,-3.676 -3.144,-5.657 -2.634,-4.388 -4.236,-7.163 -4.29,-8.702 -0.134,-3.848 5.21,-7.773 9.111,-10.64 0.718,-0.528 1.557,-1.145 2.085,-1.579 -0.431,-0.575 -0.861,-1.162 -1.273,-1.766 -0.116,0.076 -0.234,0.154 -0.346,0.228 -1.555,1.03 -4.161,2.755 -7.329,2.755 -4.894,0 -7.257,-2.498 -8.378,-4.594 -2.47,-4.622 -1.187,-11.216 1.333,-15.416 -3.732,-7.822 -2.064,-10.78 -0.022,-13.134 0.609,-0.703 0.835,-1 0.789,-1.346 -0.148,-1.09 -0.358,-2.111 -0.563,-3.099 -0.371,-1.798 -0.754,-3.657 -0.748,-5.912 -0.024,-0.565 -0.047,-2.093 0.275,-2.902 0.652,-1.636 1.672,-2.377 2.416,-2.919 0.841,-0.611 1.223,-0.89 1.205,-2.351 -0.082,-6.808 5.583,-9.803 10.135,-12.209 l 0.261,-0.138 c 0.058,-0.207 0.126,-0.545 0.184,-0.831 0.402,-1.986 1.151,-5.684 5.111,-7.869 8.251,-4.555 14.912,-5.169 19.817,-1.837 5.292,-2.401 11.887,-3.086 17.108,-3.411 4.886,-0.303 7.057,2.043 9.372,5.151 1.87,-1.024 3.515,-1.294 5.002,-0.827 1.389,0.435 2.543,1.521 3.445,3.234 2.787,-1.261 6.198,-0.543 9.4,2.061 4.438,3.611 7.752,10.445 5.592,16.388 5.163,2.333 5.953,11.974 6.344,16.74 l 0.05,0.605 c 0.186,2.195 -0.464,4.07 -1.037,5.725 -0.352,1.015 -0.685,1.979 -0.805,2.93 0.062,0.051 0.128,0.103 0.171,0.136 l 0.593,0.487 c 2.18,1.808 3.082,2.556 3.933,5.974 0.815,3.27 0.856,8.334 -1.711,11.842 -4.339,5.922 -8.12,4.707 -12.501,3.299 -0.502,-0.161 -1.023,-0.329 -1.567,-0.494 -0.667,0.929 -1.067,1.548 -1.308,1.96 14.27,7.361 14.617,8.502 9.397,19.468 -0.879,1.848 -1.876,3.941 -2.974,6.463 l -0.113,0.256 c -0.548,1.246 -0.877,2.013 -1.073,2.484 1.033,0.545 3.319,1.555 6.146,2.804 8.19,3.62 20.567,9.09 25.297,13.199 6.747,5.861 6.912,14.925 6.915,15.309 l -2.476,0.025" />
  </g>
  <defs
     id="defs105" />
</svg>
