<?xml version="1.0" encoding="UTF-8" standalone="no"?>
<svg
   xmlns:dc="http://purl.org/dc/elements/1.1/"
   xmlns:cc="http://creativecommons.org/ns#"
   xmlns:rdf="http://www.w3.org/1999/02/22-rdf-syntax-ns#"
   xmlns:svg="http://www.w3.org/2000/svg"
   xmlns="http://www.w3.org/2000/svg"
   xmlns:sodipodi="http://sodipodi.sourceforge.net/DTD/sodipodi-0.dtd"
   xmlns:inkscape="http://www.inkscape.org/namespaces/inkscape"
   version="1.0"
   inkscape:output_extension="org.inkscape.output.svg.inkscape"
   sodipodi:docname="Goethe-Logo.svg"
   inkscape:version="1.0 (6e3e5246a0, 2020-05-07)"
   sodipodi:version="0.32"
   id="svg2"
   height="81.702003"
   width="149.99925">
  <defs
     id="defs4" />
  <sodipodi:namedview
     inkscape:window-maximized="1"
     inkscape:document-rotation="0"
     inkscape:snap-global="false"
     inkscape:window-y="27"
     inkscape:window-x="72"
     inkscape:window-height="1016"
     inkscape:window-width="1848"
     showgrid="false"
     inkscape:current-layer="layer1"
     inkscape:document-units="px"
     inkscape:cy="987.38943"
     inkscape:cx="1613.1094"
     inkscape:zoom="0.24748737"
     inkscape:pageshadow="2"
     inkscape:pageopacity="0.0"
     borderopacity="1.0"
     bordercolor="#666666"
     pagecolor="#ffffff"
     id="base" />
  <metadata
     id="metadata7">
    <rdf:RDF>
      <cc:Work
         rdf:about="">
        <dc:format>image/svg+xml</dc:format>
        <dc:type
           rdf:resource="http://purl.org/dc/dcmitype/StillImage" />
        <dc:title></dc:title>
      </cc:Work>
    </rdf:RDF>
  </metadata>
  <g
     transform="translate(-1.5652465,-1.02308)"
     id="layer1"
     inkscape:groupmode="layer"
     inkscape:label="Ebene 1">
    <path
       id="path2570"
       d="m 33.904614,81.883227 c -0.720352,-1.012328 -3.85444,-5.249608 -3.982507,-5.384346 -0.07851,-0.08258 -0.08881,0.197058 -0.0773,2.09656 0.01562,2.57518 0.04842,3.156517 0.182896,3.241503 0.05238,0.0331 0.316795,0.134448 0.5876,0.225221 0.396287,0.132834 0.492374,0.189987 0.492374,0.292853 0,0.117698 -0.02637,0.124147 -0.333545,0.08154 -0.430353,-0.0597 -2.014338,-0.05963 -2.445983,1.08e-4 -0.307242,0.04252 -0.333544,0.03607 -0.333544,-0.08179 0,-0.102035 0.112249,-0.171518 0.554012,-0.34296 0.515799,-0.200184 0.557724,-0.230106 0.607915,-0.433917 0.02965,-0.120402 0.06959,-1.491138 0.08875,-3.046086 0.04023,-3.265164 0.113843,-2.925051 -0.694768,-3.210106 -0.340132,-0.119906 -0.492374,-0.205399 -0.49238,-0.276519 0,-0.09123 0.126358,-0.102172 1.111176,-0.09618 l 1.111184,0.0068 0.307663,0.469736 c 0.169219,0.258356 1.074189,1.498953 2.011047,2.756889 l 1.703378,2.287155 -0.03157,-2.299931 c -0.02678,-1.95141 -0.04677,-2.323125 -0.131838,-2.452969 -0.06215,-0.09485 -0.295184,-0.2316 -0.612901,-0.359675 -0.348352,-0.14042 -0.512622,-0.239979 -0.512615,-0.310679 1.2e-5,-0.09353 0.157191,-0.104041 1.556544,-0.104041 1.514261,0 1.556524,0.0035 1.556283,0.127065 -2.05e-4,0.101246 -0.106582,0.165889 -0.523514,0.318118 -0.393943,0.143839 -0.541222,0.230196 -0.595949,0.349428 -0.103079,0.224561 -0.220208,4.12503 -0.171218,5.701549 l 0.03998,1.286526 h -0.186079 c -0.166244,0 -0.24991,-0.08971 -0.785086,-0.841802 z m 115.623646,0.245241 c -0.22532,-0.328111 -1.26736,-1.750931 -2.31565,-3.161834 l -1.90594,-2.56527 -0.0202,1.303516 c -0.0302,1.953833 0.046,3.988583 0.15332,4.095961 0.0479,0.04794 0.31634,0.16348 0.59645,0.256762 0.41168,0.137111 0.50926,0.194091 0.50926,0.297415 0,0.117748 -0.0262,0.124134 -0.33354,0.08116 -0.42897,-0.06 -2.01295,-0.05978 -2.44599,3.43e-4 -0.30748,0.04269 -0.33354,0.0363 -0.33354,-0.08193 0,-0.102637 0.10838,-0.169142 0.54288,-0.333139 0.29858,-0.112686 0.56963,-0.254889 0.60234,-0.315995 0.0564,-0.105418 0.18701,-3.740573 0.18834,-5.24224 7.5e-4,-0.852798 -0.021,-0.885713 -0.75564,-1.141434 -0.35032,-0.121952 -0.51438,-0.211015 -0.51439,-0.279251 -1e-5,-0.08771 0.14006,-0.09934 1.12474,-0.09341 l 1.12477,0.0068 0.22788,0.374415 c 0.19866,0.326446 3.53137,4.843079 3.6984,5.012265 0.0413,0.04182 0.0546,-0.72198 0.039,-2.234641 -0.0274,-2.662519 0.0358,-2.431673 -0.75569,-2.758444 -0.32657,-0.134835 -0.50362,-0.242952 -0.50362,-0.30754 0,-0.08774 0.18539,-0.09962 1.55654,-0.09962 1.5334,0 1.55655,0.002 1.55655,0.131952 0,0.107781 -0.0926,0.164191 -0.50562,0.307958 -0.27809,0.0968 -0.54021,0.217691 -0.5825,0.268645 -0.10798,0.130116 -0.17352,1.859098 -0.17846,4.70756 l -0.004,2.366571 h -0.17798 c -0.15324,0 -0.23495,-0.08296 -0.58768,-0.596561 z m -89.893715,0.338009 c -0.790188,-0.20686 -1.282962,-0.606883 -1.603226,-1.301485 -0.141082,-0.30598 -0.145682,-0.379579 -0.176621,-2.826506 -0.02751,-2.17609 -0.04557,-2.53323 -0.134892,-2.66835 -0.06612,-0.100006 -0.277057,-0.221735 -0.587671,-0.339127 -0.328538,-0.124162 -0.484546,-0.216212 -0.484546,-0.285897 0,-0.09222 0.182534,-0.102769 1.778899,-0.102769 1.596213,0 1.7789,0.01055 1.7789,0.102745 0,0.07064 -0.169492,0.16672 -0.542241,0.307407 -0.324243,0.122376 -0.578327,0.259864 -0.631986,0.341981 -0.121087,0.185298 -0.201938,3.427329 -0.107517,4.311314 0.140923,1.31929 0.623887,1.807806 1.857038,1.878416 0.993751,0.05689 1.638743,-0.275919 1.97468,-1.018955 0.149414,-0.330479 0.150132,-0.343567 0.147743,-2.714534 -0.0018,-1.74636 -0.02301,-2.419583 -0.07957,-2.521515 -0.05338,-0.09617 -0.243672,-0.193277 -0.617037,-0.31487 -0.368417,-0.119983 -0.539871,-0.206962 -0.539878,-0.273901 -6e-6,-0.08565 0.189372,-0.0981 1.492992,-0.0981 1.336951,0 1.493007,0.01081 1.493013,0.103438 1.3e-5,0.06811 -0.128743,0.151586 -0.376893,0.24439 -0.64593,0.241562 -0.602754,0.05656 -0.643225,2.755901 -0.03294,2.197473 -0.04487,2.38866 -0.173188,2.775687 -0.23219,0.700308 -0.627753,1.187943 -1.201868,1.481608 -0.597037,0.305392 -1.794852,0.379881 -2.622904,0.16311 z M 1.8193749,82.352922 c 0,-0.102199 0.1117149,-0.162891 0.5980724,-0.324918 0.3313898,-0.110405 0.6146731,-0.242533 0.6353211,-0.296332 0.02049,-0.0534 0.037249,-1.432985 0.037249,-3.065756 0,-2.278609 -0.018456,-2.99219 -0.079417,-3.069853 C 2.9669224,75.540413 2.6810285,75.414692 2.3752802,75.316695 1.993414,75.194298 1.819374,75.107808 1.819374,75.040431 c 0,-0.08701 0.3317203,-0.0981 2.9383605,-0.0981 h 2.9383607 l 1.081e-4,0.939451 c 1.015e-4,0.890231 -0.00628,0.938496 -0.1218039,0.921214 -0.092026,-0.01375 -0.1636328,-0.148223 -0.2920759,-0.548439 -0.09359,-0.29161 -0.2103102,-0.555624 -0.2593888,-0.586693 -0.049072,-0.03107 -0.6925128,-0.05693 -1.4298604,-0.05746 l -1.3406419,-9.72e-4 -0.040801,0.524142 c -0.022446,0.288276 -0.040978,0.87704 -0.041188,1.30836 l -3.811e-4,0.784214 1.2049246,-0.02183 c 0.9688458,-0.01756 1.2222815,-0.04051 1.2935393,-0.117132 0.048736,-0.05242 0.1550755,-0.288279 0.2363014,-0.524141 0.1094024,-0.317681 0.1775721,-0.428842 0.2629975,-0.428842 0.1079158,0 0.1153107,0.08998 0.1153107,1.402364 0,1.281657 -0.00922,1.400592 -0.1072168,1.381716 C 7.1059273,79.904806 7.0043455,79.71764 6.8833675,79.379269 6.7439846,78.989435 6.6642389,78.851837 6.5617427,78.82434 6.4867876,78.804223 5.9179908,78.787384 5.2977584,78.786905 l -1.1276949,-8.7e-4 0.00633,1.350059 c 0.00348,0.742529 0.025902,1.42153 0.049822,1.508885 0.03601,0.131545 0.1382144,0.191727 0.5949403,0.350324 0.9948877,0.345476 0.9317556,0.495479 -0.1754503,0.416847 C 3.896503,82.35894 3.0930759,82.36883 2.2482131,82.44164 1.8508578,82.47588 1.8193712,82.46937 1.8193712,82.35292 Z m 8.0050471,0.0024 c 0,-0.104474 0.1022105,-0.162027 0.555906,-0.313032 0.416872,-0.138745 0.575862,-0.223498 0.63569,-0.338839 0.06139,-0.118368 0.07603,-0.83883 0.06353,-3.126296 -0.014,-2.561731 -0.02942,-2.980617 -0.111549,-3.031346 -0.05241,-0.03238 -0.331162,-0.137281 -0.619438,-0.233111 -0.3550187,-0.118019 -0.5241156,-0.205882 -0.5240711,-0.272319 6.36e-5,-0.08662 0.2655131,-0.09791 2.2712741,-0.09656 2.405096,0.0016 2.533978,0.01468 3.131858,0.317648 0.358545,0.181683 0.716053,0.567786 0.829203,0.895525 0.04682,0.135602 0.08275,0.433777 0.07983,0.662612 -0.01093,0.858371 -0.529674,1.487092 -1.442695,1.748565 l -0.408073,0.116866 1.078826,1.61153 c 1.099996,1.643165 1.243153,1.804014 1.678099,1.885609 0.14434,0.02708 0.214873,0.07586 0.214873,0.148615 0,0.09703 -0.09234,0.107976 -0.886628,0.105194 l -0.886635,-0.0031 -0.485423,-0.759277 C 14.458219,80.827789 13.85211,79.941167 13.339851,79.246645 L 13.000119,78.786038 H 12.587618 12.17511 l 0.0036,1.318291 c 0.0047,1.731041 -0.0068,1.6996 0.711146,1.93825 0.453778,0.150833 0.555906,0.208296 0.555906,0.31279 0,0.119699 -0.02578,0.124946 -0.397076,0.08087 -0.506064,-0.06008 -2.307302,-0.05945 -2.827179,9.79e-4 -0.3709643,0.04313 -0.397076,0.03775 -0.397076,-0.08185 z m 4.195723,-4.179544 c 0.474249,-0.14084 0.783283,-0.458333 0.878409,-0.902474 0.13247,-0.618447 -0.06335,-1.224607 -0.485188,-1.501899 -0.330043,-0.216943 -0.694502,-0.285729 -1.523519,-0.287533 l -0.714737,-0.0016 v 1.397706 1.397706 h 0.750855 c 0.504241,0 0.863618,-0.03349 1.09418,-0.101956 z m 4.381114,4.185839 c 0,-0.08789 0.119973,-0.173716 0.444223,-0.317789 0.307996,-0.136847 0.462036,-0.244235 0.50232,-0.350202 0.03196,-0.08405 0.436226,-1.008521 0.898371,-2.054368 0.462145,-1.045851 1.135357,-2.587695 1.496019,-3.426317 0.866503,-2.014801 0.779439,-2.00261 1.49701,-0.209556 0.29783,0.744223 0.967878,2.370176 1.488995,3.61323 l 0.947486,2.260098 0.492371,0.174739 c 0.392344,0.139238 0.492377,0.200622 0.492377,0.302129 0,0.11886 -0.02742,0.124452 -0.409694,0.08351 -0.557055,-0.05966 -2.129825,-0.06178 -2.655731,-0.0036 -0.39529,0.04375 -0.428842,0.03804 -0.428842,-0.07297 0,-0.09605 0.115736,-0.156601 0.571788,-0.299174 0.314486,-0.09833 0.571791,-0.18336 0.571791,-0.18899 0,-0.03631 -0.39458,-1.214028 -0.507235,-1.513968 l -0.137216,-0.365311 h -1.44657 -1.446573 l -0.170684,0.428841 c -0.173176,0.435093 -0.421307,1.255631 -0.421307,1.393222 0,0.04144 0.06433,0.0952 0.142946,0.119486 0.582602,0.179928 0.810035,0.297652 0.810035,0.419286 0,0.115182 -0.02679,0.123563 -0.265946,0.08317 -0.349757,-0.05909 -1.851979,-0.05989 -2.195924,-0.0012 -0.238894,0.04079 -0.27001,0.03222 -0.27001,-0.07431 z m 4.484824,-4.334195 c -0.319306,-0.766634 -0.59515,-1.408486 -0.61299,-1.426327 -0.02488,-0.02488 -0.955457,2.042907 -1.217317,2.704933 -0.0431,0.108955 0.02182,0.115283 1.182622,0.115283 h 1.228236 z m 15.654851,4.32755 c 0,-0.103324 0.09757,-0.160305 0.509281,-0.297415 0.2801,-0.09328 0.548536,-0.208868 0.596521,-0.256851 0.06452,-0.06452 0.09968,-0.414764 0.134993,-1.344502 0.0537,-1.413665 -0.0099,-4.683744 -0.0942,-4.841185 -0.03024,-0.05651 -0.300595,-0.18273 -0.600791,-0.280492 -0.399618,-0.130141 -0.545805,-0.206474 -0.545805,-0.284987 0,-0.09814 0.153925,-0.107243 1.810666,-0.107243 1.589999,0 1.810665,0.01196 1.810665,0.0981 0,0.06685 -0.17,0.153448 -0.533842,0.271938 -0.293613,0.09562 -0.572359,0.220253 -0.619438,0.276966 -0.06911,0.08326 -0.0856,0.681915 -0.0856,3.108849 0,2.589404 0.0132,3.018209 0.0953,3.095769 0.05241,0.04952 0.331161,0.167254 0.619438,0.261636 0.426434,0.139626 0.52414,0.195495 0.52414,0.299703 0,0.119807 -0.02566,0.125028 -0.397076,0.0808 -0.501629,-0.05973 -2.456767,-0.05882 -2.894248,0.0013 -0.303329,0.04171 -0.330007,0.03506 -0.330007,-0.08243 z m 4.828441,-0.0048 c 0,-0.101858 0.07194,-0.151004 0.333545,-0.227891 0.183449,-0.05392 0.374585,-0.124008 0.424738,-0.155755 0.104712,-0.06627 0.22968,0.08212 -1.708572,-2.02884 -0.717802,-0.781764 -1.305101,-1.445166 -1.305101,-1.474221 0,-0.02906 0.586085,-0.584107 1.302407,-1.233444 1.378953,-1.25 1.7789,-1.641205 1.7789,-1.740022 0,-0.03345 -0.18583,-0.122657 -0.412957,-0.198239 -0.28834,-0.09595 -0.41296,-0.169407 -0.41296,-0.243426 0,-0.09591 0.139142,-0.106003 1.461239,-0.106003 1.306481,0 1.461239,0.01093 1.461239,0.10324 0,0.06263 -0.07109,0.117459 -0.180729,0.139383 -0.526632,0.105332 -0.902767,0.366372 -2.351935,1.632255 -0.810943,0.708385 -1.466263,1.310116 -1.456269,1.337187 0.01,0.02707 0.803782,0.884524 1.763963,1.905448 1.751363,1.862166 1.890422,1.983199 2.43145,2.116344 0.120158,0.02957 0.174712,0.08387 0.174712,0.173901 0,0.123745 -0.02338,0.128409 -0.427075,0.08518 -0.563295,-0.06032 -2.050748,-0.0617 -2.511285,-0.0023 -0.340933,0.04396 -0.36531,0.03843 -0.36531,-0.08276 z m 5.08257,0.004 c 0,-0.102988 0.104499,-0.161607 0.555906,-0.31185 0.416872,-0.138745 0.575862,-0.223498 0.635689,-0.338839 0.122993,-0.237142 0.0834,-6.076482 -0.04175,-6.15376 -0.04896,-0.03024 -0.327712,-0.134296 -0.619437,-0.231231 -0.365412,-0.121425 -0.530411,-0.207343 -0.530411,-0.276208 0,-0.08947 0.306562,-0.09996 2.922472,-0.09996 h 2.922475 l 7e-6,0.9371 c 0,0.860651 -0.0093,0.937097 -0.114554,0.937097 -0.08644,0 -0.150361,-0.113047 -0.260438,-0.460607 -0.256296,-0.809265 -0.114712,-0.746503 -1.683855,-0.746503 -1.353623,0 -1.357161,3.63e-4 -1.395374,0.142949 -0.02107,0.07862 -0.03871,0.664703 -0.03918,1.302408 l -8.69e-4,1.15946 1.032396,-3.56e-4 c 1.152708,-3.94e-4 1.479078,-0.05777 1.545102,-0.271629 0.175577,-0.568728 0.297919,-0.80806 0.41308,-0.80806 0.117267,0 0.122494,0.05971 0.122494,1.397707 0,1.3354 -0.0054,1.397707 -0.12184,1.397707 -0.09586,0 -0.157999,-0.108534 -0.291342,-0.508938 -0.10048,-0.30172 -0.217305,-0.534521 -0.286935,-0.571788 -0.06502,-0.0348 -0.629774,-0.06285 -1.265198,-0.06285 h -1.147757 v 1.422434 c 0,1.263665 0.01241,1.436694 0.111181,1.550222 0.06115,0.07028 0.347043,0.204446 0.63532,0.298149 0.424707,0.138043 0.52414,0.194439 0.52414,0.297267 0,0.1189 -0.02705,0.123976 -0.428841,0.08051 -0.235862,-0.02551 -0.857684,-0.04639 -1.381825,-0.04639 -0.524139,0 -1.145959,0.02088 -1.381824,0.04639 -0.401706,0.04346 -0.42884,0.03838 -0.42884,-0.08044 z m 18.297251,0.0011 c 0,-0.103452 0.09599,-0.160051 0.499064,-0.294289 0.825701,-0.274985 0.739812,0.115432 0.739812,-3.362876 0,-2.602643 -0.01319,-3.033081 -0.0953,-3.110627 -0.0524,-0.0495 -0.331162,-0.16723 -0.619437,-0.261611 -0.378519,-0.123941 -0.524116,-0.201055 -0.524052,-0.277581 7.6e-5,-0.09698 0.19273,-0.105857 2.271273,-0.104725 2.406941,0.0013 2.532173,0.01405 3.133523,0.318779 0.328692,0.16656 0.666467,0.519305 0.797443,0.832785 0.106569,0.255062 0.114015,0.967072 0.01362,1.302179 -0.0885,0.295401 -0.428639,0.707978 -0.751902,0.912043 -0.129409,0.08169 -0.41066,0.202368 -0.625011,0.268168 l -0.38973,0.119638 1.01544,1.521555 c 0.55849,0.836851 1.101214,1.599757 1.206056,1.695344 0.104834,0.09558 0.319278,0.206187 0.476534,0.245787 0.192604,0.0485 0.285926,0.105823 0.285926,0.175634 6e-6,0.09105 -0.108188,0.103256 -0.890738,0.100518 l -0.890746,-0.0031 -0.631961,-0.981634 c -0.347565,-0.539894 -0.899749,-1.35329 -1.227054,-1.807546 l -0.595107,-0.825917 -0.427805,-0.01888 -0.4278,-0.01889 0.02021,1.462095 c 0.01656,1.198566 0.03737,1.478294 0.115502,1.551971 0.05242,0.04944 0.331161,0.167108 0.619439,0.26149 0.426427,0.139626 0.52414,0.195495 0.52414,0.299703 0,0.11975 -0.02583,0.125041 -0.397077,0.08132 -0.507652,-0.0598 -2.310166,-0.05932 -2.827706,7.43e-4 -0.370467,0.043 -0.396548,0.03761 -0.396548,-0.08207 z m 4.178577,-4.174379 c 0.388568,-0.115394 0.698257,-0.359644 0.817333,-0.644628 0.04766,-0.114073 0.08666,-0.40395 0.08666,-0.644179 0,-0.601947 -0.169346,-0.915745 -0.636675,-1.179771 -0.33348,-0.188398 -0.383187,-0.197369 -1.221419,-0.220393 l -0.873788,-0.02401 v 1.404919 1.404917 h 0.750854 c 0.487845,0 0.865111,-0.03393 1.077035,-0.09687 z m 6.113626,4.178413 c 0,-0.09292 0.122737,-0.167338 0.53304,-0.323197 0.293177,-0.111356 0.571922,-0.249292 0.619438,-0.306508 0.06957,-0.08378 0.08995,-0.689929 0.104639,-3.112115 l 0.01824,-3.008076 -0.685326,0.0036 c -0.376929,0.002 -0.78539,0.03771 -0.90769,0.07941 -0.202349,0.06901 -0.242882,0.127291 -0.450365,0.647621 -0.178863,0.448556 -0.257598,0.576166 -0.365312,0.592094 -0.135787,0.02008 -0.137306,0.0092 -0.137306,-0.984748 v -1.005054 h 3.08131 3.081307 v 1.005054 c 0,0.991254 -0.0019,1.004767 -0.136099,0.984748 -0.106466,-0.01588 -0.180336,-0.137033 -0.339254,-0.55637 -0.129027,-0.340482 -0.257662,-0.57228 -0.352559,-0.635319 C 80.9959,75.667666 80.746727,75.635189 80.17115,75.61869 l -0.784907,-0.02249 0.01881,3.028061 0.01881,3.028069 0.145439,0.109657 c 0.07999,0.06031 0.358741,0.191098 0.619438,0.290632 0.364515,0.139175 0.474002,0.209434 0.474002,0.304201 0,0.113065 -0.0301,0.119375 -0.36531,0.07652 -0.470723,-0.06018 -2.416335,-0.05998 -2.890711,2.92e-4 -0.332838,0.04229 -0.36531,0.03568 -0.36531,-0.07431 z m 11.181652,0.0053 c 0,-0.08243 0.134645,-0.183525 0.451694,-0.33913 l 0.451694,-0.221686 0.822532,-1.874198 c 1.291062,-2.941773 1.802515,-4.118713 2.043054,-4.701378 0.186556,-0.451897 0.248428,-0.54318 0.379173,-0.55936 0.147348,-0.01824 0.184039,0.05039 0.645256,1.207109 0.268962,0.674546 0.937225,2.295714 1.485026,3.6026 1.099887,2.623985 0.934697,2.364463 1.678968,2.637848 0.222262,0.08165 0.301778,0.144274 0.301778,0.237713 0,0.118205 -0.02793,0.123873 -0.409216,0.08305 -0.562089,-0.0602 -2.134908,-0.06272 -2.656208,-0.0043 -0.395932,0.0444 -0.428841,0.03883 -0.428841,-0.07271 0,-0.09709 0.11226,-0.154403 0.571789,-0.291964 0.314484,-0.09414 0.571789,-0.193677 0.571789,-0.221207 0,-0.06677 -0.40047,-1.243175 -0.539185,-1.583894 l -0.109937,-0.27001 h -1.440622 -1.440628 l -0.165941,0.428841 c -0.19585,0.506124 -0.433276,1.264665 -0.433276,1.384233 0,0.04638 0.06433,0.104192 0.142949,0.128475 0.582602,0.179928 0.810033,0.297652 0.810033,0.419286 0,0.115182 -0.02679,0.123563 -0.265945,0.08317 -0.349756,-0.05909 -1.851981,-0.05989 -2.195925,-0.0012 -0.236905,0.04044 -0.270011,0.0317 -0.270011,-0.07134 z m 4.948498,-3.245049 c -0.07126,-0.165973 -0.330411,-0.787794 -0.575893,-1.381819 -0.245481,-0.594026 -0.465779,-1.10093 -0.489553,-1.126457 -0.02378,-0.02552 -0.242484,0.417545 -0.486021,0.984595 -0.243531,0.567057 -0.520201,1.209759 -0.61482,1.428233 l -0.172032,0.397228 h 1.233939 1.233935 z m 4.962512,3.233932 c 0,-0.09644 0.07931,-0.152453 0.333544,-0.23554 0.458169,-0.149739 0.66811,-0.262985 0.741383,-0.399883 0.127388,-0.238038 0.52196,-3.436797 0.635955,-5.155677 0.06863,-1.03481 0.05527,-1.066843 -0.531496,-1.273989 -0.30357,-0.107173 -0.417,-0.178157 -0.417,-0.260974 0,-0.106484 0.07206,-0.111306 1.127683,-0.07544 0.62025,0.02107 1.14721,0.05611 1.17103,0.07786 0.0238,0.02173 0.28909,0.62562 0.58945,1.341945 0.76004,1.812464 1.70713,3.938992 1.7543,3.938992 0.0583,0 1.0107,-2.002622 1.66182,-3.494269 0.31266,-0.716322 0.62152,-1.423914 0.68632,-1.57242 l 0.11785,-0.27001 0.62301,-3.81e-4 c 0.34264,-2.09e-4 0.85888,-0.01874 1.14715,-0.04118 0.49138,-0.03825 0.52414,-0.03306 0.52414,0.08319 0,0.09539 -0.11822,0.172318 -0.51278,0.333632 -0.282,0.115311 -0.53013,0.254915 -0.55134,0.310234 -0.0985,0.256727 0.56148,5.917134 0.71796,6.157297 0.0595,0.09134 0.24631,0.186316 0.53638,0.272706 0.36339,0.108222 0.4451,0.156479 0.4451,0.26289 0,0.120799 -0.0244,0.126924 -0.33355,0.08369 -0.43003,-0.06015 -2.20372,-0.05999 -2.63658,2.41e-4 -0.30469,0.04239 -0.33354,0.03564 -0.33354,-0.07811 0,-0.09707 0.10427,-0.162547 0.47302,-0.297033 0.26014,-0.09489 0.50735,-0.213912 0.54934,-0.264509 0.0858,-0.103349 0.017,-0.86882 -0.34773,-3.868413 l -0.20856,-1.715367 -0.207,0.444723 c -0.5388,1.157631 -1.35201,2.994187 -1.9129,4.320186 -0.46804,1.106486 -0.64484,1.461236 -0.72825,1.461236 -0.084,0 -0.23532,-0.310677 -0.63477,-1.302406 -0.46686,-1.158972 -2.1884,-5.100036 -2.19246,-5.019037 -8.7e-4,0.01747 -0.0587,0.760797 -0.12862,1.651833 -0.0699,0.891037 -0.14548,2.167401 -0.16803,2.836348 l -0.041,1.216283 0.18454,0.09341 c 0.1015,0.05137 0.33464,0.142457 0.51809,0.202413 0.25423,0.0831 0.33354,0.139095 0.33354,0.23554 0,0.116421 -0.0281,0.123015 -0.35199,0.08255 -0.47492,-0.05934 -1.817682,-0.06116 -2.268709,-0.0031 -0.338188,0.04355 -0.36531,0.03766 -0.36531,-0.07949 z m 17.471329,0.0013 c 0,-0.09798 0.1034,-0.162903 0.47547,-0.298603 0.26149,-0.09538 0.50248,-0.205958 0.5355,-0.245748 0.11924,-0.143678 0.39647,-2.161667 0.60698,-4.418195 0.11931,-1.279009 0.12435,-1.809268 0.018,-1.894482 -0.0437,-0.035 -0.2581,-0.128101 -0.47647,-0.206886 -0.28828,-0.104003 -0.39709,-0.174802 -0.39709,-0.258367 0,-0.108169 0.0679,-0.112921 1.12769,-0.07878 0.62023,0.01998 1.14433,0.05417 1.16465,0.07597 0.0203,0.02179 0.18639,0.411306 0.36901,0.865562 0.18265,0.454255 0.69369,1.649784 1.13566,2.656729 l 0.8036,1.830806 0.3147,-0.623696 c 0.38424,-0.761503 1.28225,-2.728444 1.7858,-3.911489 l 0.37184,-0.873566 0.64076,-3.81e-4 c 0.35242,-2.09e-4 0.87663,-0.01874 1.16491,-0.04118 0.48842,-0.03801 0.52414,-0.0325 0.52414,0.081 0,0.09302 -0.11231,0.164684 -0.47533,0.30328 -0.26144,0.09981 -0.51099,0.224451 -0.55458,0.276971 -0.049,0.05908 -0.073,0.243811 -0.0626,0.48441 0.0379,0.884328 0.53233,5.114767 0.65116,5.57165 0.0659,0.253337 0.16868,0.321792 0.71132,0.473685 0.29064,0.08135 0.36532,0.128518 0.36532,0.230768 0,0.118561 -0.0258,0.124928 -0.33355,0.08218 -0.43338,-0.0602 -2.2056,-0.05965 -2.64186,8.2e-4 -0.32563,0.04513 -0.33803,0.04145 -0.31767,-0.09423 0.0164,-0.108978 0.11168,-0.173875 0.41779,-0.284417 0.54532,-0.196924 0.58813,-0.242736 0.58813,-0.629387 0,-0.43448 -0.53591,-5.106316 -0.59222,-5.162614 -0.0258,-0.02578 -1.30293,2.824684 -2.03247,4.536258 -0.514,1.205891 -0.73937,1.667527 -0.81417,1.667717 -0.0692,1.72e-4 -0.15181,-0.131612 -0.24908,-0.396815 -0.32502,-0.886157 -2.18841,-5.221126 -2.49966,-5.815164 -0.0645,-0.123194 -0.0944,0.09262 -0.1845,1.33314 -0.0591,0.814074 -0.14085,2.073178 -0.18158,2.798025 -0.07,1.243251 -0.0676,1.325101 0.0413,1.445353 0.0634,0.0701 0.13845,0.127466 0.16667,0.127466 0.0282,0 0.20961,0.05923 0.40309,0.131626 0.2656,0.09937 0.35182,0.162774 0.35182,0.258704 0,0.117634 -0.0271,0.123676 -0.36532,0.08142 -0.47673,-0.05958 -1.72753,-0.0601 -2.19185,-9.14e-4 -0.33688,0.04295 -0.36531,0.03684 -0.36531,-0.07862 z m 12.26172,0.0024 c 0,-0.09193 0.11246,-0.170025 0.44771,-0.310889 l 0.44774,-0.188112 0.46592,-1.075514 c 0.25626,-0.591532 0.80756,-1.847427 1.22511,-2.790879 0.41755,-0.943453 0.91225,-2.081274 1.09933,-2.528491 0.49974,-1.194682 0.46387,-1.221087 1.36393,1.003719 0.39582,0.978394 1.06324,2.593699 1.48315,3.589565 l 0.76347,1.810666 0.51317,0.181911 c 0.40687,0.144238 0.51315,0.207857 0.51315,0.307198 0,0.118002 -0.0286,0.122526 -0.49236,0.07781 -0.62853,-0.06061 -2.16145,-0.06096 -2.6366,-6.17e-4 -0.33902,0.04306 -0.3653,0.03721 -0.3653,-0.08139 0,-0.105098 0.0959,-0.157052 0.54002,-0.29251 0.29703,-0.0906 0.54004,-0.195405 0.54004,-0.23291 0,-0.08243 -0.5015,-1.565468 -0.58248,-1.722507 -0.052,-0.100895 -0.18965,-0.111181 -1.48805,-0.111181 h -1.43074 l -0.15359,0.347299 c -0.15854,0.358487 -0.50333,1.489307 -0.46473,1.524236 0.012,0.01085 0.2219,0.091 0.46649,0.178124 0.34802,0.12398 0.44926,0.188742 0.46562,0.297905 0.0197,0.131033 0.004,0.136904 -0.26276,0.09694 -0.39343,-0.059 -1.65217,-0.06194 -2.09295,-0.0049 -0.33499,0.04336 -0.36529,0.03709 -0.36529,-0.07548 z m 4.95984,-3.237699 c -0.0665,-0.165977 -0.33583,-0.816387 -0.5986,-1.445357 l -0.47774,-1.143576 -0.12645,0.285892 c -0.0696,0.157244 -0.35417,0.807652 -0.63246,1.445356 l -0.50602,1.159461 h 1.23108 1.23104 z m 4.82409,3.234528 c 0,-0.102727 0.0999,-0.159599 0.52413,-0.29852 0.28828,-0.09438 0.56704,-0.212134 0.61944,-0.261655 0.0822,-0.07757 0.0953,-0.506397 0.0953,-3.095775 0,-2.426922 -0.0165,-3.025577 -0.0856,-3.10883 -0.0471,-0.05671 -0.32583,-0.18134 -0.61944,-0.27696 -0.36383,-0.11849 -0.53384,-0.205088 -0.53384,-0.271938 0,-0.08613 0.22066,-0.09809 1.81066,-0.09809 1.5736,0 1.81067,0.01258 1.81067,0.09607 0,0.0636 -0.18452,0.160024 -0.54599,0.285331 -0.32823,0.113771 -0.57149,0.236923 -0.60996,0.30877 -0.0841,0.157248 -0.14653,3.924552 -0.0852,5.141071 0.0333,0.660537 0.0735,0.965262 0.13497,1.026844 0.0482,0.04816 0.31674,0.163888 0.59685,0.25717 0.4101,0.136577 0.50927,0.194313 0.50927,0.296506 0,0.118912 -0.027,0.123976 -0.42884,0.0804 -0.55567,-0.06025 -2.2133,-0.06046 -2.76365,-3.42e-4 -0.40194,0.04391 -0.42884,0.03889 -0.42884,-0.08006 z M 29.641466,67.747332 C 28.742023,66.43906 21.973208,57.249715 21.721017,56.994521 c -0.08322,-0.08421 -0.09001,0.444225 -0.05835,4.542547 0.0236,3.054401 0.05946,4.718549 0.105044,4.874215 0.03807,0.130005 0.132432,0.281048 0.209694,0.335648 0.07726,0.0546 0.547876,0.228486 1.045809,0.386414 l 0.905332,0.287139 v 0.195432 0.195437 l -0.301777,-0.03821 c -0.165977,-0.02101 -0.795434,-0.06957 -1.3988,-0.107915 -1.03484,-0.06577 -2.545055,-0.01992 -3.524937,0.107014 -0.301566,0.03907 -0.301776,0.03896 -0.301776,-0.151263 0,-0.186581 0.01798,-0.197141 0.905331,-0.531782 0.497934,-0.187782 0.966291,-0.401327 1.040789,-0.474536 0.101164,-0.09942 0.145801,-0.244319 0.17629,-0.572327 0.09189,-0.988498 0.167558,-3.426134 0.206949,-6.666598 l 0.04172,-3.431958 -0.153139,-0.237178 c -0.131118,-0.203069 -0.244509,-0.272638 -0.788465,-0.483733 -0.349426,-0.135604 -0.785414,-0.295074 -0.968865,-0.354374 -0.30536,-0.09871 -0.333544,-0.124105 -0.333544,-0.300524 0,-0.183096 0.01029,-0.190745 0.206479,-0.153468 0.482401,0.09166 2.536294,0.118811 3.105284,0.04106 0.482798,-0.06598 0.588052,-0.06483 0.62961,0.0069 0.459202,0.792281 1.07056,1.686803 2.068662,3.026819 0.669222,0.89847 2.080168,2.791459 3.135438,4.206636 l 1.918662,2.573051 -0.02404,-4.066056 c -0.02525,-4.269274 -0.02583,-4.277769 -0.312534,-4.583874 -0.07038,-0.07515 -0.525911,-0.300509 -1.012281,-0.50081 -0.85895,-0.35374 -0.884318,-0.369645 -0.884318,-0.554551 V 54.37331 l 0.397076,0.04805 c 1.101882,0.133345 3.158238,0.133269 4.574311,-1.71e-4 l 0.492374,-0.0464 -3.37e-4,0.24571 -3.44e-4,0.24571 -0.714393,0.247392 c -0.889157,0.307911 -1.165005,0.444452 -1.265432,0.626382 -0.136416,0.247114 -0.243971,3.277912 -0.284083,8.00484 l -0.03815,4.494898 h -0.270167 c -0.265522,0 -0.27601,-0.0085 -0.608682,-0.492375 z M 8.1090548,68.013055 C 8.0216981,67.997718 7.7408608,67.954263 7.4849595,67.916474 5.7172483,67.655457 4.467241,66.656225 3.9637046,65.101632 3.8162531,64.646405 3.8018375,64.234185 3.7646584,59.408741 3.7388772,56.062987 3.7209992,55.838219 3.4579255,55.553289 3.3874302,55.47694 2.947032,55.265504 2.4792639,55.083434 1.6538865,54.762167 1.6287786,54.746847 1.6287786,54.564437 v -0.187958 l 0.52414,0.04643 c 1.4940022,0.132346 3.8834769,0.132042 5.3049317,-6.77e-4 l 0.5241403,-0.04894 v 0.18467 c 0,0.175133 -0.030343,0.195725 -0.5876723,0.398751 -0.9747351,0.355087 -1.4864419,0.610321 -1.6140778,0.805087 -0.1073885,0.163865 -0.122058,0.42832 -0.1756917,3.167624 -0.062441,3.188794 -0.00734,4.875273 0.1827563,5.593648 0.3325018,1.256493 1.0723903,1.959476 2.334958,2.218472 0.6342157,0.130094 1.8699535,0.132535 2.3609239,0.0046 1.107345,-0.288424 1.797628,-0.950156 2.186521,-2.096059 l 0.17249,-0.508256 -0.0038,-3.430735 c -0.0043,-3.851894 -0.06695,-4.980673 -0.289527,-5.217593 -0.145839,-0.155239 -0.494618,-0.304018 -1.342581,-0.572706 -0.52417,-0.166091 -0.555905,-0.186278 -0.555905,-0.353647 0,-0.204686 -0.02048,-0.201777 0.794151,-0.112766 0.74811,0.08174 2.96615,0.08197 3.653097,3.74e-4 0.77337,-0.09186 0.762385,-0.09356 0.762385,0.117741 0,0.166436 -0.03564,0.1959 -0.397076,0.328215 -0.572482,0.209578 -1.07655,0.470121 -1.222994,0.632142 -0.123227,0.136347 -0.12829,0.259722 -0.167737,4.088886 -0.03732,3.622698 -0.05123,3.998072 -0.168677,4.551854 -0.210317,0.991672 -0.456485,1.574632 -0.932092,2.207334 -0.537075,0.714465 -1.371672,1.229004 -2.402004,1.48087 -0.504026,0.123214 -2.0710832,0.219516 -2.4603382,0.151201 z m 43.5194962,-0.02915 c 0,-0.347361 -4.109341,-10.679097 -4.850074,-12.194082 -0.237399,-0.485548 -0.422374,-0.62712 -1.125211,-0.861187 -0.477158,-0.158908 -0.504992,-0.178392 -0.504992,-0.353554 0,-0.215689 -0.02278,-0.212745 0.921215,-0.119029 0.813918,0.0808 3.133355,0.07996 3.875461,-0.0014 0.819196,-0.08982 0.794152,-0.0937 0.794152,0.1232 0,0.167697 -0.02935,0.195975 -0.270014,0.260168 -0.691165,0.18435 -1.438589,0.451735 -1.512843,0.541203 -0.06776,0.08166 -0.05684,0.177691 0.06317,0.555236 0.270652,0.85148 2.593382,6.606186 3.322049,8.230598 l 0.15289,0.340835 0.835009,-2.087968 c 1.319022,-3.298238 2.400778,-6.318192 2.44248,-6.818708 0.01609,-0.192972 -0.009,-0.232145 -0.228506,-0.357045 -0.135609,-0.07716 -0.48583,-0.221531 -0.778268,-0.320821 -0.494751,-0.16798 -0.5317,-0.192726 -0.5317,-0.356087 0,-0.202951 -0.0076,-0.201843 0.762384,-0.11062 0.69135,0.0819 2.450137,0.08222 2.986011,5.55e-4 0.61722,-0.09407 0.6175,-0.09401 0.58525,0.125725 -0.02102,0.143229 -0.07008,0.201155 -0.195475,0.230809 -0.358861,0.08487 -0.829786,0.353949 -0.99227,0.566977 -0.441789,0.579217 -2.503681,5.53912 -4.356053,10.478542 l -0.810073,2.160092 -0.2923,0.01937 c -0.187177,0.0124 -0.292291,-0.0066 -0.292291,-0.05281 z m 42.757116,0.02459 c -0.08736,-0.01283 -0.373252,-0.05464 -0.635322,-0.09293 -0.26207,-0.03829 -0.740943,-0.153905 -1.064163,-0.256911 -0.701248,-0.223493 -0.653707,0.0037 -0.428842,-2.049215 0.08736,-0.797532 0.15883,-1.489729 0.15883,-1.538216 0,-0.05513 0.06973,-0.08816 0.186087,-0.08816 0.212915,0 0.181073,-0.08407 0.643213,1.698022 l 0.267341,1.030937 0.344797,0.129008 c 0.809189,0.302757 1.984259,0.377793 2.815215,0.179776 1.167784,-0.278283 1.931345,-1.122098 2.01332,-2.224933 0.04144,-0.557519 -0.03833,-0.886356 -0.314701,-1.297515 -0.341326,-0.507773 -0.865592,-0.864767 -2.458857,-1.674326 -1.761325,-0.894956 -2.177913,-1.155424 -2.740992,-1.71377 -0.655136,-0.649635 -0.943852,-1.330393 -0.945263,-2.228816 -0.0015,-0.941228 0.336671,-1.749674 1.008421,-2.410923 1.397788,-1.375928 3.611813,-1.695223 6.098054,-0.879425 l 0.595194,0.195296 -0.04541,1.437612 c -0.02497,0.790686 -0.06821,1.461735 -0.09607,1.49122 -0.110616,0.117039 -0.274732,-0.0025 -0.378797,-0.27597 -0.05984,-0.157242 -0.245406,-0.678829 -0.41236,-1.159078 l -0.303558,-0.873192 -0.397272,-0.122704 c -0.963446,-0.297579 -1.91468,-0.322032 -2.596965,-0.06675 -0.478923,0.179189 -1.05753,0.71321 -1.293596,1.193924 -0.156079,0.317837 -0.177134,0.432445 -0.177134,0.964262 0,0.725014 0.1173,1.016919 0.602646,1.499729 0.42094,0.418738 0.751942,0.611148 2.265708,1.317035 1.566251,0.730367 1.952437,0.961273 2.538033,1.517529 0.762786,0.724576 1.110696,1.646207 1.015976,2.691424 -0.0818,0.902782 -0.37894,1.52534 -1.046941,2.19355 -0.393734,0.393855 -0.595448,0.537349 -1.087004,0.773256 -0.669622,0.321371 -1.39261,0.518708 -2.25539,0.615614 -0.54564,0.06128 -1.535888,0.0743 -1.874197,0.02464 z m -58.19542,-0.391532 c 0,-0.190476 0.0091,-0.195668 0.810033,-0.459743 1.092759,-0.360318 1.200421,-0.414985 1.287701,-0.653905 0.121753,-0.333272 0.202769,-3.8049 0.159461,-6.832703 -0.04833,-3.378945 -0.09435,-4.057075 -0.285845,-4.212139 -0.07368,-0.05966 -0.547381,-0.245188 -1.052657,-0.412273 -0.902023,-0.29828 -0.918693,-0.307141 -0.918693,-0.488353 v -0.184562 l 0.460607,0.04895 c 1.245395,0.132361 3.889957,0.132847 5.368462,9.85e-4 l 0.524142,-0.04675 v 0.191915 c 0,0.190701 -0.0059,0.193877 -0.933231,0.502993 -0.717295,0.239098 -0.961518,0.348962 -1.055477,0.474808 -0.109091,0.146116 -0.128005,0.33372 -0.175755,1.74313 -0.0671,1.980682 -0.06793,6.189298 -0.0015,7.881551 0.06004,1.530095 0.06066,1.531677 0.686389,1.737374 0.237222,0.07799 0.667168,0.226341 0.955444,0.329675 0.500063,0.179249 0.524142,0.19674 0.524142,0.380653 v 0.192775 l -0.301779,-0.03877 c -0.165976,-0.02132 -0.874843,-0.06898 -1.575264,-0.105922 -1.197117,-0.06314 -3.130533,-0.01465 -4.142626,0.103889 l -0.333542,0.03907 z m 24.407552,-0.0132 0.02055,-0.208436 0.974697,-0.330005 c 0.536083,-0.181499 1.00067,-0.370321 1.032417,-0.419611 0.17489,-0.271542 0.188448,-0.725708 0.170997,-5.729753 -0.01656,-4.748486 -0.0268,-5.1794 -0.126652,-5.331753 -0.08762,-0.133682 -0.299637,-0.229408 -1.095929,-0.494803 -0.978807,-0.32623 -0.987296,-0.33068 -0.987296,-0.517906 v -0.188851 l 1.032398,0.05118 c 1.323105,0.06559 6.971825,0.06641 8.470153,0.0012 l 1.14807,-0.04994 v 1.59059 1.590594 h -0.164551 c -0.154575,0 -0.183373,-0.05426 -0.474647,-0.894196 -0.170547,-0.491807 -0.355826,-0.94941 -0.411727,-1.016891 -0.06153,-0.07427 -0.246842,-0.149078 -0.469523,-0.189544 -0.515053,-0.0936 -4.841216,-0.05383 -4.940345,0.04541 -0.05106,0.05112 -0.08356,0.781903 -0.108026,2.430103 l -0.03501,2.357003 1.582052,-0.0015 c 1.866567,-0.0018 3.024409,-0.07776 3.22916,-0.211919 0.09025,-0.05914 0.208766,-0.278459 0.31961,-0.591487 0.417953,-1.180272 0.409864,-1.164586 0.600646,-1.164586 h 0.175786 l 0.0014,2.445986 0.0014,2.445987 h -0.17406 c -0.166034,0 -0.186861,-0.03724 -0.451795,-0.807893 -0.152765,-0.444342 -0.334922,-0.873279 -0.404809,-0.953198 -0.200559,-0.229352 -0.646172,-0.271938 -2.845648,-0.271938 h -2.034151 l 0.03936,2.6207 c 0.02164,1.441385 0.05715,2.681844 0.07889,2.75657 0.03871,0.133049 0.07595,0.136848 1.796987,0.183355 1.96379,0.05306 3.298931,0.01142 3.553098,-0.110826 0.263957,-0.126949 0.415391,-0.411117 0.751412,-1.410008 0.304917,-0.906429 0.315743,-0.926716 0.494611,-0.926716 H 71.5302 l -0.04023,0.333543 c -0.02213,0.183448 -0.05855,0.972937 -0.08095,1.75442 l -0.04073,1.420884 -0.419503,-0.03911 c -0.230724,-0.0215 -1.491606,-0.06861 -2.801958,-0.104676 -2.25415,-0.06204 -5.672693,-0.01123 -7.072611,0.105115 l -0.497043,0.04131 z m 15.172956,0.01395 c 0,-0.182833 0.02478,-0.200794 0.524141,-0.379789 0.288276,-0.103334 0.717551,-0.251462 0.953942,-0.329172 0.236397,-0.07771 0.471504,-0.182979 0.522461,-0.233945 0.215527,-0.21552 0.22751,-0.545278 0.209333,-5.758845 -0.01656,-4.748486 -0.0268,-5.1794 -0.126651,-5.331753 -0.08762,-0.133682 -0.299638,-0.229408 -1.095929,-0.494803 -0.982988,-0.327622 -0.987297,-0.329891 -0.987297,-0.520618 v -0.191561 l 0.397076,0.0464 c 0.762768,0.08914 2.057045,0.124591 3.097192,0.08484 3.485213,-0.133212 3.764492,-0.135161 4.396868,-0.0307 2.431017,0.40158 3.600536,1.812597 3.221663,3.886908 -0.227154,1.243642 -1.210326,2.163552 -2.745903,2.569207 l -0.546981,0.144497 1.79205,2.668464 c 0.985626,1.467653 1.917484,2.808779 2.070791,2.980272 0.312549,0.349616 0.581789,0.505652 1.071318,0.620855 0.298727,0.0703 0.333543,0.09607 0.333536,0.246866 l -6e-6,0.16838 -1.52644,-0.006 -1.526438,-0.006 -0.46415,-0.759057 C 84.487992,65.596617 83.10319,63.557368 81.949718,61.997674 L 81.350656,61.18764 h -0.763714 -0.76372 l 0.03231,2.398338 c 0.03389,2.516571 0.07199,2.889136 0.318308,3.11308 0.07671,0.06974 0.546868,0.261455 1.044799,0.426035 0.899927,0.297443 0.905334,0.300384 0.905334,0.491877 v 0.192649 l -0.333545,-0.03875 c -1.032743,-0.119998 -2.87453,-0.167808 -4.073605,-0.105736 -0.703434,0.03642 -1.429072,0.08383 -1.612521,0.105355 l -0.333545,0.03914 z m 6.797938,-7.258572 c 1.072352,-0.16919 1.676103,-0.532569 2.026667,-1.219787 0.191644,-0.375685 0.219433,-0.494676 0.246422,-1.055218 0.02516,-0.522429 0.0071,-0.708635 -0.104426,-1.075758 -0.243481,-0.801592 -0.928141,-1.366874 -1.906784,-1.574312 -0.280627,-0.05948 -0.849082,-0.08954 -1.707233,-0.09028 l -1.286526,-0.0011 v 2.541287 2.541284 l 1.159458,-4.8e-4 c 0.637705,-2.64e-4 1.345295,-0.0298 1.572422,-0.06563 z m 22.172707,7.261825 c 0,-0.187706 0.0123,-0.194613 0.87357,-0.490589 0.48046,-0.165115 0.93676,-0.340349 1.01402,-0.38942 0.29893,-0.189885 0.30467,-0.298652 0.29814,-5.648615 -0.005,-4.100507 -0.0225,-5.077172 -0.0953,-5.3367 l -0.0892,-0.317658 -1.00062,-0.339946 c -0.99558,-0.338227 -1.00064,-0.340918 -1.00064,-0.531606 v -0.191658 l 0.49239,0.04625 c 1.41871,0.13326 4.14668,0.133786 5.40021,9.99e-4 l 0.46061,-0.04878 v 0.18475 c 0,0.180776 -0.0181,0.190695 -0.84179,0.461147 -1.11268,0.365338 -1.17234,0.398637 -1.25339,0.69953 -0.171,0.635101 -0.21956,8.538249 -0.0629,10.233837 0.0486,0.526116 0.076,0.621038 0.21324,0.739832 0.0866,0.07495 0.55964,0.270296 1.05115,0.434108 0.88724,0.29569 0.89366,0.299216 0.89366,0.49048 v 0.192649 l -0.33354,-0.03885 c -1.04437,-0.121664 -2.90932,-0.169187 -4.12429,-0.105089 -0.7105,0.03749 -1.42762,0.08559 -1.59361,0.106906 -0.3015,0.03873 -0.30177,0.03859 -0.30177,-0.151619 z m 11.43577,0 c 0,-0.183983 0.0219,-0.198203 0.65122,-0.422941 1.02198,-0.364959 1.32907,-0.538212 1.47712,-0.833344 0.12356,-0.246321 0.12756,-0.399364 0.14537,-5.550674 l 0.0183,-5.297369 -1.19364,0.04549 c -1.12407,0.04284 -1.71025,0.105855 -1.88154,0.202252 -0.24891,0.14009 -0.38455,0.380592 -0.71533,1.268535 -0.35264,0.94652 -0.37023,0.978117 -0.54476,0.978117 h -0.18035 v -1.81066 -1.810665 l 0.23824,0.0015 c 0.13104,8.33e-4 0.75287,0.02945 1.38183,0.0636 0.62897,0.03415 2.34432,0.06208 3.81193,0.06208 1.46759,0 3.18294,-0.02794 3.81192,-0.06208 0.62896,-0.03415 1.25078,-0.06277 1.38182,-0.0636 l 0.23825,-0.0015 v 1.810665 1.810664 h -0.18036 c -0.17453,0 -0.19212,-0.0316 -0.54475,-0.978117 -0.37015,-0.99357 -0.48735,-1.178242 -0.83141,-1.310065 -0.18814,-0.07207 -1.68968,-0.183442 -2.52782,-0.187489 l -0.43126,-0.0021 0.0183,5.289049 c 0.0212,6.139497 -0.0359,5.625871 0.66497,5.97566 0.23836,0.118958 0.69783,0.310088 1.02104,0.424736 0.56424,0.20014 0.58768,0.21605 0.58768,0.39899 0,0.189383 -0.002,0.190298 -0.28704,0.151193 -0.15788,-0.02164 -0.8845,-0.07079 -1.61475,-0.109231 -1.25297,-0.06595 -3.24873,-0.01429 -4.21318,0.109072 -0.30148,0.03856 -0.30179,0.0384 -0.30179,-0.151783 z m 9.2757,0.005 c 0,-0.173284 0.0385,-0.199225 0.71824,-0.483397 0.39504,-0.165153 0.7619,-0.336091 0.81526,-0.379865 0.0534,-0.04377 0.30593,-0.565608 0.56126,-1.159633 0.25532,-0.594025 1.09179,-2.495223 1.85883,-4.224885 1.25468,-2.829282 2.52009,-5.749517 3.01452,-6.956766 0.17928,-0.437756 0.18609,-0.445016 0.43482,-0.463298 l 0.25268,-0.01857 0.5343,1.352747 c 0.93133,2.358037 3.26056,7.983834 4.6511,11.233838 l 0.12311,0.287748 0.88766,0.30782 c 0.87594,0.303759 0.88766,0.310348 0.88766,0.498709 0,0.190691 -3e-4,0.19085 -0.30177,0.15294 -1.00484,-0.126339 -3.07275,-0.180737 -4.22779,-0.111201 -0.67105,0.04039 -1.313,0.08997 -1.42657,0.110185 -0.19613,0.03489 -0.20647,0.02694 -0.20647,-0.158487 0,-0.17606 0.0265,-0.202255 0.27001,-0.266949 0.32036,-0.08511 1.64868,-0.508371 1.71135,-0.545305 0.0451,-0.02656 -0.79107,-2.560765 -1.01568,-3.078423 l -0.12652,-0.291592 -0.91195,-0.04172 c -1.15659,-0.05291 -2.1313,-0.05315 -3.33995,-8.39e-4 l -0.95518,0.04134 -0.25601,0.609859 c -0.4134,0.984763 -0.89611,2.64705 -0.79585,2.740645 0.0282,0.02635 0.43011,0.182941 0.89313,0.347991 0.82697,0.294795 0.84179,0.303448 0.84179,0.491193 0,0.185183 -0.007,0.189942 -0.23825,0.153455 -0.80282,-0.126899 -2.34883,-0.179282 -3.2678,-0.110724 -0.53514,0.03992 -1.06587,0.08917 -1.17945,0.109434 -0.19371,0.03457 -0.20648,0.02553 -0.20648,-0.146257 z m 9.08509,-5.186082 c 0,-0.01009 -0.49408,-1.208033 -1.09797,-2.662098 l -1.09798,-2.643748 -0.9827,2.262538 c -0.54049,1.244397 -1.06011,2.442339 -1.15474,2.662097 l -0.17202,0.399559 h 2.25271 c 1.23899,0 2.2527,-0.0083 2.2527,-0.01835 z m 8.06858,5.1806 c 0,-0.183608 0.0222,-0.198533 0.58767,-0.394923 0.73089,-0.253848 1.32419,-0.532284 1.46442,-0.687246 0.0588,-0.06499 0.13577,-0.270169 0.17101,-0.455957 0.0397,-0.20951 0.0641,-2.279915 0.0641,-5.451692 v -5.113895 l -1.19122,0.0454 c -1.70059,0.06481 -1.99821,0.137643 -2.20621,0.539869 -0.053,0.102531 -0.22264,0.523956 -0.37695,0.936501 -0.15429,0.412543 -0.3004,0.800111 -0.32468,0.861262 -0.0278,0.0701 -0.11204,0.111179 -0.22792,0.111179 h -0.1838 V 56.19137 54.371704 l 0.77826,0.04953 c 2.09823,0.133523 6.7717,0.13393 9.21214,8e-4 l 0.87358,-0.04765 v 1.818327 1.818327 l -0.17471,-5.99e-4 c -0.16678,-5.73e-4 -0.19018,-0.04242 -0.51558,-0.921956 -0.34003,-0.919094 -0.4828,-1.180866 -0.71062,-1.302791 -0.22535,-0.120595 -0.72565,-0.179169 -1.91862,-0.224627 l -1.19124,-0.04539 4.8e-4,4.884894 c 2.7e-4,2.729919 0.0276,5.120556 0.0619,5.41908 0.0875,0.761127 0.21887,0.87553 1.57356,1.370381 0.62944,0.229922 0.65121,0.244281 0.65121,0.429535 0,0.185697 -0.007,0.190507 -0.23825,0.154629 -0.13103,-0.02036 -0.84633,-0.06964 -1.5896,-0.109503 -1.27968,-0.06864 -3.31028,-0.01753 -4.28711,0.107909 -0.30163,0.03874 -0.30178,0.03866 -0.30178,-0.152063 z m -12.23309,-14.40019 c -0.39785,-0.173299 -0.71371,-0.737171 -0.63824,-1.139433 0.0562,-0.29931 0.37559,-0.650063 0.70745,-0.776804 0.24077,-0.09195 0.3281,-0.09767 0.53673,-0.03516 0.84588,0.25343 1.08965,1.15483 0.46921,1.734946 -0.3242,0.303114 -0.7017,0.379116 -1.07515,0.216455 z m 4.06922,-0.02571 c -0.53358,-0.341961 -0.74336,-0.891501 -0.51151,-1.339886 0.13819,-0.267245 0.51173,-0.56639 0.76702,-0.614282 0.48516,-0.09102 1.02478,0.275632 1.18305,0.803848 0.22435,0.748848 -0.79418,1.563296 -1.43856,1.15032 z M 1.5652465,46.908797 v -0.68297 l 49.6503445,0.02076 49.650349,0.02076 8.4e-4,-0.433723 c 0.003,-1.418665 0.67804,-2.940038 1.80246,-4.060692 1.23869,-1.234528 2.55539,-1.99018 6.51942,-3.741435 2.99831,-1.324619 4.89196,-2.246645 4.89196,-2.381907 0,-0.180267 -0.46762,-1.070939 -1.23517,-2.352557 -1.03611,-1.730061 -1.27435,-2.228905 -1.27435,-2.668347 0,-0.245076 0.0473,-0.444293 0.15832,-0.667088 0.24543,-0.492463 1.28771,-1.485838 2.55768,-2.437614 0.62024,-0.46484 1.1277,-0.871146 1.1277,-0.902904 0,-0.04436 -0.67678,-1.002334 -0.80004,-1.132441 -0.0134,-0.01414 -0.22034,0.104609 -0.45988,0.263892 -1.07777,0.716661 -1.8313,0.9391 -2.74436,0.810112 -1.27989,-0.180808 -2.08501,-1.006251 -2.32947,-2.388236 -0.18137,-1.025336 0.061,-2.373678 0.62166,-3.457631 l 0.24689,-0.477391 -0.25185,-0.58421 c -0.34997,-0.81173 -0.50922,-1.462713 -0.50847,-2.078423 7.3e-4,-0.613851 0.13167,-0.938501 0.62613,-1.552669 0.41695,-0.517858 0.4141,-0.473829 0.12824,-1.97728 -0.13239,-0.696324 -0.19065,-1.208892 -0.19886,-1.750023 -0.0111,-0.729213 -0.003,-0.779216 0.16173,-1.061153 0.0954,-0.162734 0.34065,-0.424569 0.54506,-0.58186 0.43839,-0.337339 0.57949,-0.598125 0.57949,-1.0710266 0,-0.5379177 0.1066,-0.9900363 0.35084,-1.488022 0.38583,-0.786751 1.12332,-1.4166308 2.57993,-2.2034957 l 0.54831,-0.2961961 0.1395,-0.6036775 c 0.30557,-1.3223625 0.79996,-1.9211419 2.11467,-2.5611321 2.28045,-1.1101347 4.15773,-1.2569453 5.51826,-0.4315545 l 0.35577,0.2158243 0.43839,-0.1874301 c 0.95121,-0.4066766 2.18931,-0.6888958 3.8599,-0.8798505 2.02553,-0.23152367 2.66526,-0.15875272 3.38562,0.3851222 0.30872,0.2330884 1.05002,1.0796909 1.11433,1.2726277 0.0168,0.05029 0.16216,0.00478 0.43557,-0.1363405 0.35812,-0.1848314 0.47244,-0.2121191 0.89707,-0.2141255 0.44118,-0.00208 0.51242,0.015743 0.76238,0.1907704 0.15548,0.1088604 0.36499,0.3443988 0.48034,0.5400231 0.11253,0.1908244 0.22689,0.3832301 0.25412,0.4275685 0.0383,0.062362 0.11427,0.047975 0.33543,-0.063532 0.23454,-0.1182598 0.38947,-0.144148 0.86261,-0.144148 0.55275,0 0.59991,0.011492 1.13407,0.2762465 0.92601,0.4589771 1.78968,1.3756752 2.28899,2.4295079 0.47406,1.0005719 0.59386,2.0036033 0.35217,2.9486042 -0.0699,0.2732491 -0.12706,0.5182822 -0.12706,0.5445185 0,0.026236 0.12802,0.1096754 0.28449,0.1854221 1.00664,0.4873127 1.61944,2.1243577 1.8774,5.0154167 0.0867,0.972316 0.0568,1.206676 -0.29458,2.308691 -0.33775,1.05912 -0.34916,1.241178 -0.0898,1.43293 0.52097,0.385173 1.0059,0.912545 1.16262,1.2644 0.49507,1.111419 0.48469,2.966595 -0.0222,3.967049 -0.3766,0.743325 -1.21957,1.540389 -1.80138,1.703286 -0.48779,0.136572 -1.21767,0.05131 -2.15532,-0.251774 -0.44899,-0.145134 -0.85047,-0.250793 -0.89216,-0.2348 -0.16861,0.0647 -0.88137,1.250171 -0.75177,1.250368 0.0253,3.8e-5 0.56069,0.273927 1.18965,0.608644 1.88096,1.000986 2.75138,1.647149 2.99086,2.220262 0.12996,0.311032 0.11146,0.901544 -0.044,1.4051 -0.074,0.239544 -0.33466,0.864376 -0.57933,1.388517 -0.88937,1.905202 -1.76395,3.87678 -1.76395,3.976533 0,0.115959 0.37468,0.298995 2.95424,1.443235 4.7685,2.115186 6.931,3.276103 8.05409,4.323748 0.65381,0.609846 1.29717,1.66723 1.60954,2.645247 0.25626,0.802271 0.3415,1.326491 0.38491,2.366571 l 0.0404,0.968865 H 76.415646 1.5652465 Z M 119.56346,43.059774 c -0.008,-0.112456 -0.21622,-0.458277 -0.5549,-0.921216 -0.2982,-0.407644 -0.84722,-1.198602 -1.22,-1.757686 -0.37279,-0.559082 -0.86981,-1.302409 -1.10448,-1.651834 -0.23467,-0.349428 -0.54771,-0.835449 -0.69565,-1.080047 -0.29356,-0.485362 -0.61597,-0.857683 -0.74269,-0.857683 -0.0443,0 -0.11289,0.06033 -0.15237,0.134064 -0.0607,0.113459 -0.0236,0.228355 0.24149,0.747521 0.39993,0.783231 1.3145,2.273385 2.464,4.014689 0.96805,1.466413 1.10144,1.600948 1.55494,1.568262 0.2015,-0.01452 0.22116,-0.03291 0.20966,-0.19607 z m 6.51153,0.04726 c 1.01168,-0.208706 1.83422,-0.576905 2.20461,-0.986895 0.32837,-0.363464 0.33654,-0.487592 0.0653,-0.989709 -0.3674,-0.679774 -0.36053,-0.673585 -0.65793,-0.593502 -0.29726,0.08004 -0.45064,0.291129 -0.60506,0.832688 -0.0554,0.19438 -0.16748,0.451685 -0.24901,0.57179 l -0.14824,0.21837 -0.67309,-0.0061 c -0.57535,-0.0052 -0.71777,-0.02828 -0.98113,-0.158831 -0.41236,-0.204424 -0.42743,-0.346392 -0.0772,-0.726427 0.39045,-0.42359 0.57491,-0.505598 0.91996,-0.408993 0.23719,0.06641 0.29925,0.06257 0.43592,-0.02698 0.35355,-0.231659 0.70283,-1.226527 0.65218,-1.857641 -0.0569,-0.709201 -0.42919,-1.087027 -0.6501,-0.659831 -0.0815,0.157727 -0.0935,0.302809 -0.0594,0.722679 0.0343,0.42267 0.0224,0.564535 -0.0611,0.725924 -0.187,0.361636 -0.42711,0.409576 -1.02361,0.204356 -0.85005,-0.292461 -1.23888,-0.06517 -1.23888,0.724184 0,0.978297 0.71916,2.252614 1.38446,2.453159 0.24087,0.07261 0.22013,0.07365 0.76243,-0.03822 z m 5.46545,-0.25953 c 0.8993,-0.619371 2.34703,-2.639909 2.74606,-3.832569 0.0888,-0.265524 0.15029,-0.644923 0.1721,-1.062684 0.03,-0.57485 0.0213,-0.654557 -0.0753,-0.69166 -0.15117,-0.05801 -0.24578,0.065 -0.42088,0.547234 -0.36239,0.998054 -1.75427,2.666192 -2.66455,3.193424 -0.22714,0.131551 -0.65598,0.312935 -0.95298,0.403078 -0.57875,0.175648 -0.76238,0.291734 -0.76238,0.48193 0,0.205334 0.23354,0.589559 0.51034,0.839641 0.53716,0.485298 0.878,0.513929 1.44763,0.121606 z m -8.10888,-0.253605 c 0.17947,-0.162402 0.13865,-0.415424 -0.16088,-0.997524 -0.46167,-0.897194 -0.66839,-1.132533 -1.26478,-1.439826 -1.13228,-0.583428 -1.89759,-1.300943 -3.0642,-2.872864 -0.44295,-0.596848 -0.73662,-0.937098 -0.80878,-0.937098 -0.17272,0 -0.14333,0.216456 0.14156,1.042681 0.88371,2.562823 1.96986,4.069244 3.5128,4.871966 0.96667,0.502919 1.36672,0.583854 1.64428,0.332665 z m 0.0612,-3.076694 c 0.40136,-0.257553 1.4612,-1.371381 1.8764,-1.971969 0.61635,-0.891608 0.78192,-1.33234 0.56738,-1.510389 -0.0485,-0.04024 -0.3987,-0.100588 -0.77825,-0.134096 -1.61745,-0.142799 -2.78409,-0.723099 -4.25793,-2.117956 -0.69808,-0.660645 -1.24085,-1.435595 -1.76416,-2.518778 -0.56939,-1.178553 -0.46456,-1.243004 0.52479,-0.322652 1.41354,1.31495 2.57253,2.210997 3.34415,2.585454 l 0.44294,0.214951 h 1.30855 c 1.47114,0 1.77999,-0.05524 2.2293,-0.398705 0.36489,-0.278933 0.56356,-0.671174 0.56356,-1.112677 0,-0.634618 -0.36381,-0.962319 -1.22722,-1.105387 -0.32803,-0.05435 -0.51991,-0.04729 -0.97254,0.03578 -0.71533,0.13129 -0.94694,0.128509 -1.26276,-0.01515 -0.72252,-0.328672 -0.44343,-0.784765 0.54482,-0.890361 0.34906,-0.0373 0.56613,-0.01292 1.24152,0.139425 0.70847,0.159807 0.85439,0.174909 1.08561,0.112345 0.35827,-0.09694 0.63586,-0.342713 0.72568,-0.642527 0.0946,-0.315601 -0.0299,-0.528374 -0.41008,-0.700978 -0.36734,-0.16678 -0.59891,-0.153249 -1.15452,0.06746 -0.55108,0.218915 -0.80973,0.23541 -1.24842,0.07961 -0.31138,-0.110594 -0.31424,-0.110369 -0.80519,0.06353 -0.27099,0.09599 -0.55274,0.174519 -0.62614,0.174519 -0.0734,0 -0.30821,-0.128652 -0.5218,-0.285894 -0.2136,-0.157243 -0.40505,-0.285894 -0.42546,-0.285894 -0.0204,0 -0.16087,0.0889 -0.31217,0.197559 -0.27329,0.196264 -0.27616,0.196785 -0.43513,0.07942 -0.17974,-0.132694 -0.1732,-0.263072 0.034,-0.676609 0.17437,-0.348062 0.36465,-0.399574 0.75163,-0.20348 0.44544,0.225715 0.63356,0.207466 0.98349,-0.0954 0.51849,-0.448751 0.78028,-0.422493 1.3125,0.131639 0.46945,0.488779 0.58008,0.491808 1.03974,0.02847 0.51616,-0.520315 0.79624,-0.538917 1.46008,-0.09698 0.20967,0.139578 0.42802,0.253871 0.48524,0.253982 0.0572,1.11e-4 0.29191,-0.08771 0.52152,-0.195157 0.2296,-0.107447 0.48199,-0.186067 0.56085,-0.174715 0.22994,0.03311 0.43365,0.398706 0.43365,0.778293 0,0.498793 0.10829,0.608294 0.60154,0.608294 h 0.40372 l 0.37093,-0.406717 c 0.63293,-0.693961 1.75332,-2.623086 1.95923,-3.373446 0.0664,-0.241878 0.12303,-0.810735 0.15502,-1.556535 0.0445,-1.037081 0.0737,-1.256983 0.24947,-1.869333 0.20889,-0.72813 0.24087,-1.127647 0.13576,-1.695675 -0.0636,-0.344359 -0.30593,-0.661241 -0.46781,-0.612018 -0.17141,0.05212 -0.35831,0.578441 -0.35831,1.009009 0,0.372053 -0.0223,0.45306 -0.17472,0.635697 -0.30917,0.370399 -0.54637,0.557894 -0.99329,0.785145 -0.50692,0.257768 -0.7044,0.276083 -0.90857,0.08427 -0.17999,-0.169087 -0.18584,-0.342067 -0.02,-0.59248 0.16759,-0.253055 0.16333,-0.270653 -0.0953,-0.393988 -0.40325,-0.192295 -0.26542,-0.358282 0.41537,-0.50023 0.25366,-0.05289 0.50695,-0.121137 0.56291,-0.151662 0.17237,-0.09401 0.49518,-0.465954 0.63543,-0.732078 0.21118,-0.400768 0.17065,-0.582429 -0.1825,-0.817563 -0.23669,-0.1576 -0.28693,-0.12938 -0.29514,0.165805 -0.0246,0.882605 -0.8394,1.472946 -1.5964,1.15665 -0.45113,-0.188495 -0.71502,-0.585272 -0.71502,-1.075091 0,-0.355638 -0.0837,-0.370283 -0.51912,-0.09086 -0.19294,0.12381 -0.32336,0.259261 -0.34935,0.362827 -0.0363,0.144476 0.0118,0.213522 0.38175,0.548938 0.23279,0.211021 0.42323,0.432085 0.42321,0.491253 -4e-5,0.150629 -0.24474,0.305381 -0.48288,0.305381 -0.31417,0 -0.34147,0.09251 -0.20624,0.698851 0.0663,0.297013 0.1435,0.916948 0.17168,1.377634 0.0556,0.908585 0.0133,0.79513 0.53762,1.443819 0.0635,0.0786 0.14242,0.262727 0.17533,0.409179 0.0492,0.218921 0.0379,0.308418 -0.0633,0.503203 -0.13378,0.25772 -0.40066,0.551504 -0.66657,0.733813 -0.0928,0.06363 -0.24034,0.22911 -0.32785,0.36773 -0.2318,0.367217 -0.36176,0.406371 -0.94703,0.285341 -0.6865,-0.141977 -0.8926,-0.131173 -1.14315,0.05993 -0.32644,0.249006 -0.60998,0.137218 -0.8512,-0.335608 -0.0755,-0.147877 -0.20254,-0.311694 -0.28242,-0.364037 -0.13246,-0.08678 -0.18696,-0.08029 -0.61863,0.07368 -0.57115,0.203733 -0.72134,0.179284 -1.11228,-0.181047 -0.34558,-0.318554 -0.4663,-0.647566 -0.33703,-0.918556 0.065,-0.136167 0.13933,-0.188214 0.28984,-0.202815 0.17083,-0.01657 0.21817,0.01073 0.30298,0.174711 0.0553,0.106898 0.11663,0.194357 0.13634,0.194357 0.0197,0 0.21195,-0.157114 0.42718,-0.349141 0.22765,-0.203081 0.45119,-0.34926 0.53434,-0.349427 0.25691,-5.11e-4 0.53665,0.385869 0.62234,0.859595 0.066,0.364438 0.13901,0.47371 0.38574,0.576794 0.4474,0.186941 0.96926,-0.109029 1.10931,-0.629135 0.0564,-0.209459 0.0437,-0.353529 -0.0726,-0.824596 -0.14884,-0.602379 -0.14817,-0.514281 -0.0194,-2.555993 0.0361,-0.571976 0.0208,-0.714507 -0.15353,-1.429473 -0.25799,-1.058259 -0.28958,-1.351903 -0.20834,-1.936097 0.0979,-0.704144 0.24149,-0.984696 0.68113,-1.331248 0.44574,-0.351364 1.33703,-0.797452 1.99148,-0.996737 0.88979,-0.270944 1.88281,-0.146453 2.63454,0.330281 0.23063,0.146255 0.34089,0.183202 0.41254,0.138225 0.14834,-0.09314 0.31287,-0.581189 0.31605,-0.937568 0.004,-0.397323 -0.15091,-0.736373 -0.74723,-1.640187 -0.43457,-0.658673 -0.64642,-1.150371 -0.64639,-1.500301 1e-5,-0.08975 0.0575,-0.515422 0.12773,-0.945941 0.14303,-0.876683 0.11127,-1.328328 -0.12825,-1.823105 -0.27862,-0.5755546 -0.94879,-1.1726781 -1.50354,-1.3396286 -0.23555,-0.070889 -0.43561,-0.069527 -1.24658,0.00849 -1.59562,0.1535035 -1.68491,0.1452515 -2.89457,-0.2675283 -0.92908,-0.3170346 -1.11915,-0.3612537 -1.56568,-0.3642728 -0.60953,-0.00412 -2.37808,0.1863361 -2.95251,0.3179528 -1.36399,0.3125414 -2.40931,1.3260507 -2.84877,2.7621249 -0.17115,0.559269 -0.28519,1.563223 -0.23298,2.05085 0.055,0.513918 -0.0109,0.746893 -0.54228,1.915628 -0.23829,0.52414 -0.46761,1.081634 -0.5096,1.238875 -0.0576,0.215723 -0.0628,0.808292 -0.0211,2.41422 0.0798,3.080317 0.0775,3.169453 -0.0928,3.444956 -0.0784,0.126775 -0.27269,0.306819 -0.43186,0.400097 -0.45642,0.267484 -0.54813,0.637299 -0.40445,1.630757 0.0898,0.621122 0.21673,0.845213 0.56362,0.995373 0.34727,0.150323 0.4293,0.118787 0.71089,-0.273322 0.38427,-0.535082 0.54398,-0.446969 0.51734,0.285416 -0.0288,0.791721 0.33985,2.199169 0.88292,3.371074 l 0.31232,0.673959 -0.25039,0.723746 c -0.13771,0.398062 -0.35531,1.121318 -0.48353,1.607235 -0.32092,1.216108 -0.30367,1.600469 0.1108,2.468027 1.01725,2.12919 2.23607,3.587898 4.04226,4.837841 0.88634,0.613361 1.06888,0.654708 1.54416,0.349729 z m 0.63401,-15.919152 c -0.29187,-0.354101 -0.63912,-1.051251 -0.68025,-1.365689 -0.032,-0.244867 -0.006,-0.325684 0.23521,-0.720526 0.21551,-0.353305 0.27682,-0.51982 0.29824,-0.810034 0.0344,-0.465479 -0.0636,-0.480737 -0.50996,-0.07942 -0.25808,0.232034 -0.36311,0.285895 -0.55746,0.285895 -0.38629,0 -0.42814,-0.12623 -0.16383,-0.494124 0.12396,-0.172541 0.26769,-0.415008 0.31942,-0.538812 0.0876,-0.209612 0.085,-0.23655 -0.0368,-0.391503 -0.0721,-0.09152 -0.21792,-0.211412 -0.3243,-0.266424 -0.24805,-0.12827 -0.30768,-0.0458 -0.25972,0.359202 0.0247,0.208977 0.003,0.363764 -0.0759,0.529283 -0.14379,0.303022 -0.62541,0.725338 -0.88211,0.773497 -0.32023,0.06007 -0.88192,-0.182971 -1.15379,-0.49925 -0.21893,-0.254681 -0.22779,-0.283625 -0.20802,-0.678979 0.0194,-0.388695 0.0122,-0.414167 -0.1242,-0.433512 -0.16842,-0.0239 -0.50095,0.294883 -0.56223,0.538979 -0.0867,0.345849 0.32446,0.974578 0.63748,0.974578 0.15243,0 0.12203,0.175715 -0.0623,0.360033 -0.14075,0.140727 -0.20361,0.159159 -0.44868,0.131535 -0.36274,-0.04089 -0.55207,-0.214706 -0.81223,-0.745696 l -0.20235,-0.412959 -0.3161,0.01907 c -0.2924,0.01764 -0.33683,-7.1e-5 -0.59273,-0.236313 l -0.27662,-0.255387 0.0323,-0.462538 c 0.0456,-0.653655 0.24275,-1.121525 0.66454,-1.577127 0.80531,-0.869815 2.42923,-1.284566 3.85052,-0.983411 0.61795,0.130936 1.52078,0.66141 2.23207,1.311501 0.39538,0.361342 0.44584,0.454316 0.57121,1.052383 0.0775,0.369589 0.0707,0.452898 -0.10789,1.303347 l -0.19066,0.908519 0.13677,0.825918 c 0.15244,0.9206 0.16267,1.230396 0.0513,1.555764 -0.10331,0.301876 -0.24484,0.30841 -0.48077,0.02219 z m -2.71173,-3.847486 c 0.14281,-0.203892 0.12837,-0.537408 -0.0269,-0.620486 -0.18228,-0.09757 -0.44555,-0.01023 -0.5143,0.170592 -0.16196,0.426004 0.29298,0.804222 0.54117,0.449894 z m -2.19368,-0.907079 c 0.28571,-0.272523 0.4105,-0.349425 0.56707,-0.349425 0.18705,0 0.20073,0.01515 0.20073,0.222363 0,0.122297 0.007,0.222021 0.0159,0.221607 0.009,-4.15e-4 0.17313,-0.04296 0.36531,-0.09455 0.19219,-0.05158 0.48775,-0.09413 0.65678,-0.09454 l 0.30738,-7.53e-4 -0.0429,-0.254128 -0.0429,-0.254129 h 0.23131 c 0.14205,0 0.3215,0.06129 0.46505,0.158829 0.29969,0.203645 0.3313,0.200034 0.3313,-0.03785 0,-0.414996 -0.44684,-0.824777 -1.16941,-1.072419 -0.42521,-0.145735 -0.67729,-0.158197 -1.21726,-0.06018 -0.62984,0.114338 -1.12908,0.48846 -1.41585,1.061029 -0.19878,0.396907 -0.21303,0.552201 -0.0676,0.737073 0.20456,0.260055 0.39572,0.217155 0.81518,-0.182935 z m 11.13406,20.469526 c 0.76175,-0.378056 1.85931,-1.098058 2.16009,-1.417041 0.68447,-0.725924 1.5284,-2.104761 1.80095,-2.942441 0.14621,-0.449424 0.13579,-0.819878 -0.0609,-2.164743 -0.21621,-1.478117 -0.28155,-1.779916 -0.39488,-1.823399 -0.13661,-0.05241 -0.23793,0.08059 -0.44869,0.589028 -0.27375,0.66034 -0.60659,1.132611 -1.25247,1.777056 -1.07082,1.068442 -3.09175,2.235012 -4.33674,2.50336 -0.97287,0.209687 -1.12793,0.268102 -1.15144,0.433773 -0.0211,0.148786 0.78218,1.760948 1.12754,2.262923 0.22008,0.319865 0.6048,0.676723 1.01121,0.937939 0.41779,0.268546 0.75851,0.23405 1.54536,-0.156455 z M 127.91858,26.03812 c 0.1606,-0.133176 0.27697,-0.488419 0.23099,-0.705054 -0.0503,-0.237021 -0.18387,-0.400885 -0.43075,-0.52856 l -0.18041,-0.09329 0.0437,0.408213 c 0.0338,0.315591 0.0206,0.452835 -0.058,0.604895 -0.0559,0.108174 -0.10171,0.258857 -0.10171,0.334844 0,0.121135 0.0247,0.133222 0.20043,0.09808 0.11024,-0.02205 0.24332,-0.07565 0.29573,-0.119125 z m -15.44879,-2.213277 c 0.2381,-0.118028 0.4353,-0.311261 0.86438,-0.846979 0.31549,-0.393903 0.5559,-0.753784 0.5559,-0.832161 0,-0.101316 -0.0653,-0.163788 -0.24548,-0.234531 l -0.24547,-0.09643 -0.27187,0.315618 c -0.48277,0.560467 -0.90584,0.702061 -1.23658,0.413871 -0.12146,-0.105845 -0.1797,-0.240669 -0.22439,-0.519454 -0.0707,-0.440895 -0.11378,-0.498248 -0.3536,-0.47026 -0.15332,0.01789 -0.19602,0.07038 -0.30127,0.370276 -0.0674,0.192185 -0.1369,0.536801 -0.15439,0.765814 -0.0318,0.416548 0.0567,0.70148 0.31564,1.016001 0.29461,0.357909 0.73301,0.397872 1.29713,0.118234 z m 26.81558,-2.232245 c 0.21917,-0.07168 0.51295,-0.229909 0.659,-0.354906 0.26348,-0.225547 0.26348,-0.225572 0.23004,-0.594448 -0.0231,-0.254718 -0.10088,-0.492006 -0.25133,-0.766666 -0.32117,-0.586291 -0.49426,-0.573299 -1.01115,0.07588 -0.6497,0.815982 -1.67751,0.841921 -2.4574,0.06202 -0.35537,-0.355355 -0.48346,-0.651664 -0.47882,-1.107461 0.007,-0.703013 0.4626,-1.34028 1.1145,-1.559473 0.45409,-0.152673 0.51891,-0.317115 0.28337,-0.719016 -0.33515,-0.571885 -1.02488,-0.877124 -1.43623,-0.635588 -0.38062,0.223502 -0.85884,1.095043 -1.02437,1.866896 -0.16108,0.751143 0.50753,2.255832 1.33164,2.996775 0.39034,0.350949 1.07871,0.719583 1.57446,0.843156 0.44119,0.10997 0.90638,0.07597 1.46629,-0.107169 z M 130.357,19.668085 c 0.0546,-0.119782 0.0475,-0.185754 -0.0332,-0.308922 -0.15339,-0.234105 -0.35899,-0.276838 -0.49913,-0.103752 -0.15744,0.194434 -0.14444,0.358692 0.0433,0.546405 0.13146,0.131477 0.18061,0.14652 0.28904,0.08849 0.072,-0.03844 0.16186,-0.138454 0.20002,-0.222222 z m 1.6222,-0.999373 c 0.0279,-0.247272 0.008,-0.308283 -0.1664,-0.506727 -0.22806,-0.259745 -0.50177,-0.403232 -1.02014,-0.534783 -0.32624,-0.08279 -0.41416,-0.08197 -0.79985,0.0075 -0.48335,0.112097 -0.60095,0.18285 -0.60095,0.36156 0,0.08843 -0.11089,0.171695 -0.40352,0.30299 -0.39664,0.177963 -0.48593,0.273451 -0.48593,0.519682 0,0.198617 0.12774,0.197471 0.68569,-0.0062 0.6041,-0.220469 0.8095,-0.233699 1.28816,-0.08296 0.46903,0.147703 0.47449,0.146195 0.45116,-0.124551 -0.0179,-0.207351 -0.003,-0.238246 0.11517,-0.238246 0.0802,0 0.2707,0.138131 0.46548,0.337436 0.18138,0.185588 0.35447,0.316726 0.38462,0.291418 0.0302,-0.02531 0.0691,-0.172519 0.0864,-0.327135 z m 4.6652,-4.796616 c 0.0158,-0.380114 -0.006,-0.528367 -0.14384,-1.000631 -0.22571,-0.770767 -0.54698,-1.359774 -0.97541,-1.788211 -0.36578,-0.365781 -0.43051,-0.402711 -1.02238,-0.583327 -0.67442,-0.205801 -0.74338,-0.220733 -0.96544,-0.209039 -0.10374,0.0055 -0.14295,0.04681 -0.14295,0.150743 0,0.09913 0.14568,0.269302 0.47313,0.552715 0.5743,0.497074 0.80707,0.799127 1.24149,1.610981 0.53202,0.994168 1.00057,1.504143 1.38258,1.504778 0.12112,2.01e-4 0.14445,-0.03614 0.15282,-0.238009 z m -21.60044,-2.88829 c 0.36034,-0.202514 0.50278,-0.473967 0.56991,-1.0861626 0.0709,-0.6466827 0.25396,-1.0251104 0.62015,-1.2822483 0.25353,-0.1780266 0.30792,-0.1903933 0.79067,-0.1797757 0.28515,0.00627 0.58805,0.020566 0.67312,0.031766 0.13481,0.017747 0.16336,-0.014628 0.22235,-0.251917 0.0902,-0.3630142 0.77891,-1.2149982 1.28486,-1.5895509 0.70709,-0.5234584 1.11219,-0.6092083 2.00293,-0.4239703 0.76612,0.1593233 1.07173,0.2813075 1.67648,0.6691691 0.69777,0.4475042 0.84011,0.4918401 1.0454,0.3255976 0.23122,-0.187243 0.10452,-0.3708865 -0.50541,-0.7325017 -0.59135,-0.35059 -0.76696,-0.5137468 -0.76696,-0.7125439 0,-0.4774584 0.89356,-0.4402929 1.93393,0.080441 0.50875,0.2546431 1.24269,0.7566422 1.24269,0.8499944 0,0.1470406 0.45358,1.0013073 0.55164,1.0389341 0.0717,0.027557 0.17153,-0.022453 0.29904,-0.1499669 0.16512,-0.165113 0.19492,-0.2479398 0.21765,-0.604863 0.0522,-0.8193515 -0.0954,-1.0765397 -0.93337,-1.6270017 -0.71911,-0.4723615 -0.92468,-0.5176357 -1.69652,-0.3736573 -0.34667,0.064669 -0.74724,0.1188523 -0.89015,0.1204075 -0.45029,0.0049 -1.22811,-0.2331185 -1.64254,-0.5026175 -1.15408,-0.7505017 -1.73392,-0.8028844 -2.86253,-0.2585992 -0.62865,0.3031688 -1.02557,0.6295589 -0.96322,0.792045 0.0403,0.1048915 0.10779,0.110551 0.8254,0.069162 l 0.78156,-0.045079 0.20226,0.1702018 c 0.25042,0.210714 0.25211,0.2883236 0.0122,0.561549 -0.31566,0.3595206 -0.84316,0.6833839 -1.25206,0.768714 -0.98808,0.2061922 -3.12664,1.9048577 -3.8952,3.0939707 -0.43913,0.6794188 -0.48559,1.1028838 -0.14151,1.2895848 0.23496,0.127484 0.30601,0.122598 0.59722,-0.04108 z m 17.48291,-1.4980191 c 0.5078,-0.3427178 0.80831,-0.4704559 1.18768,-0.5048548 0.44587,-0.040432 0.93492,0.1083394 1.24177,0.3777652 0.15304,0.13438 0.22377,0.1647897 0.24224,0.1041495 0.0143,-0.047107 0.0423,-0.1359919 0.0622,-0.197524 0.17083,-0.5289187 -0.80746,-1.4083037 -1.71872,-1.5449549 -0.36224,-0.054322 -1.20571,0.063966 -1.91913,0.2691386 -0.50142,0.1441943 -0.53959,0.1468811 -0.65122,0.04585 -0.25632,-0.2319622 -0.0802,-1.0400937 0.37147,-1.7046911 0.3484,-0.5126234 1.17926,-1.4093014 1.35859,-1.4662223 0.18291,-0.058053 0.15203,-0.2736691 -0.0463,-0.323451 -0.34731,-0.087172 -1.77176,0.5381275 -2.2095,0.969917 -0.28517,0.2813005 -0.51813,0.7481505 -0.62311,1.2486431 -0.0978,0.466132 0.0393,0.8318844 0.46469,1.2400546 0.27017,0.2592346 0.31913,0.3464648 0.38023,0.6774583 0.0917,0.4964655 0.19878,0.6925598 0.48782,0.8929426 0.20744,0.1438025 0.29005,0.1620045 0.65137,0.1435426 0.34154,-0.017451 0.46724,-0.057221 0.71994,-0.2277626 z M 8.807908,40.24782 C 8.7205514,40.232575 8.377478,40.174464 8.0455228,40.118686 5.2148173,39.643044 3.004643,37.944896 2.1024423,35.552431 1.5564154,34.10447 1.4865557,32.207492 1.9237075,30.698979 c 0.9292271,-3.20657 4.0731329,-5.494866 8.0524292,-5.860965 0.8863813,-0.08155 2.3568443,-0.0075 3.4474813,0.17368 l 0.625689,0.103925 v 1.965234 1.965234 l -0.189922,-0.01873 c -0.18317,-0.01807 -0.200711,-0.04925 -0.49299,-0.876414 -0.166683,-0.471726 -0.41637,-1.094683 -0.554858,-1.384348 -0.28329,-0.592537 -0.338284,-0.63135 -1.160669,-0.819182 -0.334724,-0.07645 -0.764169,-0.10507 -1.572318,-0.104775 -0.9435849,3.43e-4 -1.1887109,0.02135 -1.6200685,0.138853 -1.913524,0.521231 -3.2792105,1.83117 -3.9508086,3.789521 -0.3838482,1.119304 -0.5179136,3.063588 -0.3003989,4.356637 0.3923744,2.332542 1.7018222,4.097678 3.5708738,4.813524 0.7822454,0.299601 1.1550584,0.357255 2.2686362,0.350842 0.965878,-0.0056 1.37319,-0.05663 2.175976,-0.272801 l 0.270011,-0.07271 v -2.192442 -2.192444 l -0.157616,-0.146075 c -0.08668,-0.08034 -0.551263,-0.297663 -1.032399,-0.482939 -0.481128,-0.185277 -0.967694,-0.374025 -1.081258,-0.41944 -0.16979,-0.06791 -0.206479,-0.117015 -0.206479,-0.276411 0,-0.236517 -0.089784,-0.232088 1.896178,-0.09354 1.170758,0.08168 1.614773,0.08714 2.391458,0.02942 0.524572,-0.03898 1.232511,-0.08844 1.573201,-0.109896 l 0.619438,-0.03902 v 0.199062 c 0,0.192935 -0.0262,0.211574 -0.851171,0.605451 -0.60254,0.287678 -0.885549,0.458943 -0.968866,0.586308 -0.109541,0.167462 -0.117793,0.355915 -0.119159,2.721242 l -0.0015,2.541319 -0.443259,0.116114 c -1.203431,0.315245 -2.239481,0.444569 -3.715161,0.463746 -0.7862089,0.01022 -1.5009452,0.0061 -1.588302,-0.0091 z m 16.232453,-0.09134 c -0.656744,-0.138008 -1.171652,-0.314108 -1.715367,-0.586659 -2.682545,-1.344707 -4.200188,-4.459645 -3.846269,-7.8944 0.203823,-1.978026 0.871443,-3.482959 2.099138,-4.731828 1.256047,-1.277705 2.687769,-1.919555 4.689737,-2.102431 3.266637,-0.298404 6.035833,1.239361 7.193471,3.994611 1.117239,2.659106 0.677265,6.375822 -1.024201,8.65207 -1.087872,1.455377 -2.538621,2.361645 -4.322075,2.699961 -0.743492,0.141038 -2.33119,0.124862 -3.074434,-0.03132 z m 3.308658,-0.911184 c 2.414586,-0.778482 3.600161,-3.655623 3.199177,-7.763767 -0.301441,-3.088372 -1.388733,-4.947772 -3.270117,-5.592297 -0.677322,-0.232038 -1.805785,-0.285584 -2.549689,-0.120982 -1.993361,0.441057 -3.351753,2.056158 -3.739381,4.446047 -0.11787,0.726715 -0.118187,2.370554 -6.55e-4,3.336875 0.410044,3.371061 1.720779,5.306025 3.941458,5.818526 0.609984,0.140774 1.783962,0.08041 2.419207,-0.124402 z m 8.360621,0.594526 0.02063,-0.211047 1.008434,-0.336492 c 0.554633,-0.185068 1.074974,-0.38009 1.156308,-0.433383 0.300234,-0.196723 0.303761,-0.257477 0.328759,-5.668093 0.02489,-5.388951 -0.01135,-6.527869 -0.216492,-6.802636 -0.121199,-0.162328 -0.209108,-0.199938 -1.530508,-0.654775 -0.764456,-0.263137 -0.778268,-0.271295 -0.778268,-0.45981 v -0.191919 l 0.9371,0.04293 c 3.917479,0.179475 5.709535,0.1794 9.990425,-4.16e-4 l 0.984748,-0.04136 v 1.756424 1.756425 h -0.193379 c -0.187001,0 -0.199345,-0.01835 -0.373945,-0.555908 -0.341307,-1.050813 -0.553104,-1.543371 -0.706996,-1.644206 -0.242559,-0.15893 -1.639776,-0.221624 -3.910129,-0.175451 l -2.071377,0.04213 -0.04107,0.763733 c -0.02258,0.420055 -0.04107,1.631227 -0.04107,2.691492 v 1.927755 l 2.207741,-4.8e-4 c 2.147707,-4.68e-4 2.879216,-0.04903 3.134272,-0.208057 0.111614,-0.06959 0.282313,-0.458758 0.695774,-1.586246 0.124675,-0.339993 0.147952,-0.365309 0.335873,-0.365309 h 0.201917 v 2.731881 2.731881 H 47.650502 47.452604 L 47.11802,33.990608 c -0.339833,-0.973327 -0.448812,-1.152402 -0.751814,-1.235424 -0.0933,-0.02557 -1.281328,-0.05915 -2.640057,-0.07464 l -2.470422,-0.02816 0.02918,3.053665 c 0.01605,1.679518 0.04962,3.074106 0.0746,3.099083 0.02497,0.02498 1.357154,0.04667 2.960395,0.04819 2.861244,0.0027 2.91829,3.28e-4 3.094674,-0.130257 0.263543,-0.195111 0.417965,-0.508602 0.785129,-1.593864 0.327096,-0.966833 0.330515,-0.973215 0.520519,-0.973215 h 0.191257 l -0.03804,0.428843 c -0.02093,0.235863 -0.05694,1.111744 -0.08003,1.946404 l -0.04199,1.51756 -0.515051,-0.03849 c -0.283276,-0.02117 -1.705016,-0.07108 -3.159433,-0.11091 -2.513838,-0.06885 -5.839447,-0.02137 -7.795511,0.111295 l -0.592425,0.04018 z m 18.360806,0.0031 c 0.02004,-0.201553 0.0389,-0.213822 0.687692,-0.447572 1.225173,-0.441404 1.591277,-0.647839 1.726923,-0.973759 0.06662,-0.160064 0.08722,-1.403928 0.101436,-6.125222 l 0.01783,-5.924369 -0.938982,0.0016 c -1.761675,0.0031 -2.625265,0.161217 -2.820678,0.516524 -0.04505,0.08192 -0.256168,0.606354 -0.469152,1.165436 -0.382242,1.003369 -0.389879,1.016772 -0.590615,1.036423 l -0.203372,0.01991 v -2.015212 -2.015206 l 0.968864,0.04229 c 4.101398,0.179011 6.113093,0.179042 10.196904,1.54e-4 l 0.968865,-0.04244 v 2.011185 2.01118 H 64.508786 64.30141 l -0.401033,-1.072811 c -0.286708,-0.766984 -0.452926,-1.12253 -0.583078,-1.247225 -0.289719,-0.277565 -0.708961,-0.35011 -2.270117,-0.392809 l -1.41359,-0.03867 0.0021,5.33063 c 0.0022,5.527579 0.0359,6.500091 0.237114,6.845905 0.143145,0.246013 0.671509,0.524533 1.634942,0.861838 0.683904,0.239439 0.699299,0.249109 0.719463,0.452043 l 0.02061,0.20737 -0.370036,-0.0393 c -0.20352,-0.02161 -1.022792,-0.07322 -1.820608,-0.114675 -1.381462,-0.07179 -3.328627,-0.02356 -4.637349,0.114841 l -0.370042,0.03913 z m 12.579343,-0.0019 0.02062,-0.209525 1.059531,-0.357788 c 0.582735,-0.196783 1.117428,-0.410188 1.188196,-0.47423 0.255291,-0.231037 0.267115,-0.538775 0.248181,-6.460597 -0.02074,-6.488527 0.0256,-5.986725 -0.573159,-6.207374 -0.183946,-0.06778 -0.698963,-0.243898 -1.144482,-0.391358 -0.803166,-0.265835 -0.810034,-0.26976 -0.810034,-0.46282 v -0.194712 l 0.587672,0.04126 c 2.572684,0.180639 3.324889,0.180568 5.940252,-5.64e-4 l 0.587673,-0.0407 v 0.193318 0.193318 l -1.075522,0.363057 c -1.160579,0.391771 -1.310606,0.487679 -1.406023,0.898872 -0.03119,0.134413 -0.05739,1.295047 -0.05822,2.579192 l -0.0015,2.334805 h 3.404667 3.404672 l -0.02513,-2.46187 c -0.01719,-1.684229 -0.0486,-2.517047 -0.09943,-2.636552 C 78.790296,26.29406 78.526004,26.157943 77.438481,25.795189 76.46989,25.472105 76.469617,25.47196 76.469617,25.277178 v -0.194807 l 0.587671,0.04209 c 2.482582,0.177798 3.584444,0.177374 5.945003,-0.0023 l 0.528895,-0.04025 -0.02063,0.211305 -0.02064,0.211308 -1.056311,0.354336 c -0.580969,0.194885 -1.101156,0.39227 -1.155972,0.438634 -0.222059,0.187829 -0.237332,0.637541 -0.219466,6.461633 0.01449,4.726342 0.0328,5.745483 0.105749,5.887421 0.108996,0.212089 0.246198,0.275947 1.420666,0.661232 l 0.937101,0.307415 v 0.217169 0.21717 l -0.365311,-0.03795 c -0.20092,-0.02088 -1.003795,-0.07089 -1.784167,-0.111153 -1.34357,-0.06931 -3.239305,-0.02261 -4.542018,0.11189 l -0.370042,0.03821 0.02062,-0.207538 c 0.02058,-0.207124 0.02253,-0.208194 0.973604,-0.538223 0.524138,-0.181877 1.013871,-0.363547 1.088285,-0.403709 0.259953,-0.140295 0.349485,-0.533172 0.408365,-1.792099 0.03024,-0.646439 0.05608,-1.911522 0.05743,-2.811296 l 0.0025,-1.635952 h -3.406147 -3.406141 l 0.03372,2.652466 c 0.01956,1.538096 0.06278,2.785924 0.102884,2.970126 0.119103,0.547032 0.186321,0.596588 1.34366,0.990715 l 1.043603,0.355395 0.02062,0.210058 0.02062,0.210057 -0.370044,-0.03821 c -0.203524,-0.02101 -0.98993,-0.07128 -1.747564,-0.111698 -1.310687,-0.06993 -3.09798,-0.02705 -4.583359,0.10995 l -0.433582,0.03999 z m 18.551358,2.98e-4 0.02064,-0.209823 1.066648,-0.360195 c 0.586655,-0.198106 1.122461,-0.416003 1.190675,-0.484216 0.242666,-0.24267 0.257445,-0.643314 0.238073,-6.453919 -0.02021,-6.063907 -0.0129,-5.939078 -0.358072,-6.113209 -0.09231,-0.04656 -0.618111,-0.233898 -1.168459,-0.416301 l -1.00063,-0.331639 v -0.195189 -0.19519 l 0.937099,0.0431 c 3.842219,0.176721 5.987965,0.176618 10.031334,-4.8e-4 l 0.962118,-0.04214 -7.5e-4,1.75676 -7.49e-4,1.756762 h -0.178539 c -0.198106,0 -0.2166,-0.0378 -0.627824,-1.283217 -0.239086,-0.724093 -0.372394,-0.91632 -0.690945,-0.996324 -0.416936,-0.10471 -1.945258,-0.143201 -3.854779,-0.09708 l -1.863917,0.04502 -0.03658,0.228703 c -0.02011,0.125785 -0.0555,1.338876 -0.07862,2.695756 l -0.04205,2.467053 2.502893,-0.02237 c 2.157049,-0.01927 2.535231,-0.03685 2.73692,-0.127244 0.273587,-0.122614 0.321638,-0.209154 0.689958,-1.242589 0.272814,-0.765447 0.280589,-0.778268 0.471878,-0.778268 h 0.194492 l 0.0019,2.731881 0.0019,2.731881 h -0.195323 c -0.194343,0 -0.196714,-0.0042 -0.471718,-0.8418 -0.152021,-0.462992 -0.31749,-0.922673 -0.367706,-1.02152 -0.188378,-0.370793 -0.310876,-0.387267 -3.062488,-0.411847 l -2.503128,-0.02235 0.04126,2.75295 c 0.0227,1.514122 0.05889,2.900019 0.08046,3.079769 l 0.03921,0.32682 1.279091,0.04457 c 2.028561,0.07068 4.478855,0.02101 4.709725,-0.09546 0.251836,-0.127053 0.526662,-0.682681 0.871628,-1.762205 l 0.269002,-0.841801 h 0.215406 c 0.202743,0 0.212959,0.01027 0.173715,0.174714 -0.02295,0.09609 -0.05883,0.971982 -0.07976,1.946423 l -0.03808,1.771711 -0.515315,-0.03852 c -0.283424,-0.02118 -1.703036,-0.07104 -3.154689,-0.110791 -2.510336,-0.06876 -5.771987,-0.02247 -7.832302,0.111155 l -0.624203,0.04048 z"
       style="fill:#005ea8;fill-opacity:1;stroke-width:0.0635321" />
    <path
       id="path2572"
       d="m 118.94919,43.214767 c -0.16556,-0.08279 -0.41878,-0.41722 -1.11856,-1.477265 -1.14951,-1.741307 -2.06408,-3.231459 -2.46398,-4.014689 -0.2651,-0.519168 -0.30223,-0.634064 -0.24148,-0.747521 0.0395,-0.07374 0.10801,-0.134066 0.15235,-0.134066 0.12672,0 0.44913,0.372321 0.74268,0.857684 0.14794,0.244598 0.46099,0.73062 0.69565,1.080046 0.23467,0.349426 0.73167,1.092752 1.10448,1.651835 0.37279,0.559083 0.92179,1.350041 1.22,1.757685 0.33866,0.462939 0.54697,0.808759 0.55491,0.921216 0.0115,0.163165 -0.008,0.181545 -0.20967,0.196069 -0.12229,0.0088 -0.31867,-0.03213 -0.43638,-0.09099 z m 6.39513,-0.01959 c -0.66528,-0.200546 -1.38445,-1.47486 -1.38445,-2.453157 0,-0.789358 0.38882,-1.016645 1.23888,-0.724185 0.59648,0.20522 0.83661,0.157278 1.02362,-0.204357 0.0834,-0.161387 0.0954,-0.303254 0.0612,-0.725924 -0.0341,-0.419869 -0.0221,-0.56495 0.0594,-0.72268 0.22093,-0.427195 0.59317,-0.04937 0.6501,0.659831 0.0507,0.631115 -0.29861,1.625984 -0.65218,1.857643 -0.13667,0.08955 -0.19872,0.09339 -0.43591,0.02698 -0.34504,-0.09661 -0.5295,-0.0146 -0.91996,0.408992 -0.3503,0.380033 -0.33523,0.522004 0.077,0.726428 0.26336,0.130542 0.40578,0.153601 0.98114,0.158829 l 0.67308,0.0061 0.14825,-0.218371 c 0.0815,-0.120105 0.19357,-0.377409 0.24899,-0.571788 0.15442,-0.54156 0.3078,-0.752648 0.60507,-0.83269 0.2974,-0.08008 0.29053,-0.08627 0.65793,0.593503 0.27138,0.502117 0.26321,0.626245 -0.0653,0.98971 -0.37037,0.409989 -1.19291,0.77819 -2.20461,0.986897 -0.54228,0.111873 -0.52155,0.110832 -0.76243,0.03822 z m 5.24546,-0.08961 c -0.44392,-0.199888 -0.97555,-0.837149 -0.97555,-1.169388 0,-0.190197 0.18364,-0.306284 0.76239,-0.481932 0.29701,-0.09014 0.72584,-0.271527 0.95298,-0.403077 0.9103,-0.527231 2.30217,-2.19537 2.66455,-3.193425 0.1751,-0.48223 0.26971,-0.605242 0.42088,-0.547232 0.0967,0.03711 0.10537,0.116809 0.0753,0.691658 -0.0218,0.417761 -0.0832,0.79716 -0.1721,1.062684 -0.39903,1.19266 -1.84675,3.213197 -2.74606,3.832569 -0.396,0.272742 -0.69723,0.33656 -0.98243,0.208143 z m -7.93917,-0.41133 c -2.04108,-0.750261 -3.32766,-2.306567 -4.34436,-5.255048 -0.28489,-0.826225 -0.31428,-1.042681 -0.14156,-1.042681 0.0721,0 0.36583,0.340249 0.80879,0.937098 1.1666,1.571921 1.93191,2.289435 3.06418,2.872864 0.40948,0.210984 0.57453,0.338985 0.75618,0.586443 0.33053,0.450281 0.78485,1.358123 0.78485,1.568364 0,0.375135 -0.41161,0.522803 -0.92808,0.33296 z m 0.0603,-3.02279 c -0.28674,-0.12475 -1.17414,-0.74891 -1.77312,-1.247125 -1.1498,-0.9564 -2.20223,-2.375456 -2.99976,-4.044766 -0.41449,-0.86756 -0.43173,-1.251919 -0.11081,-2.468026 0.12822,-0.485917 0.34582,-1.209174 0.48352,-1.607235 l 0.2504,-0.723749 -0.31232,-0.673958 c -0.54308,-1.171903 -0.9117,-2.579352 -0.8829,-3.371073 0.0266,-0.732385 -0.13309,-0.820498 -0.51736,-0.285415 -0.28159,0.392108 -0.36362,0.423645 -0.71089,0.273321 -0.34688,-0.150162 -0.47379,-0.374253 -0.56362,-0.995374 -0.14369,-0.993457 -0.052,-1.363273 0.40444,-1.630756 0.15918,-0.09328 0.35351,-0.273322 0.43187,-0.400097 0.17026,-0.275503 0.17267,-0.364639 0.0928,-3.444955 -0.0416,-1.605929 -0.0365,-2.198498 0.0211,-2.414219 0.042,-0.157242 0.2713,-0.714739 0.50959,-1.238877 0.53138,-1.168733 0.59731,-1.401709 0.54228,-1.91563 -0.0522,-0.487623 0.0618,-1.491579 0.23298,-2.050847 0.43945,-1.4360752 1.48478,-2.449585 2.84878,-2.7621254 0.57442,-0.1316176 2.34297,-0.3220737 2.9525,-0.3179528 0.44653,0.00302 0.6366,0.047238 1.56569,0.3642728 1.20965,0.4127794 1.29894,0.4210317 2.89456,0.2675278 0.81097,-0.078019 1.01104,-0.079382 1.24659,-0.00849 0.55473,0.1669494 1.22491,0.7640734 1.50353,1.3396286 0.23951,0.494779 0.27128,0.946422 0.12825,1.823106 -0.0703,0.430517 -0.12772,0.856191 -0.12773,0.945941 -3e-5,0.349929 0.21182,0.841627 0.64639,1.500298 0.59631,0.903814 0.75078,1.242867 0.74723,1.640189 -0.003,0.356376 -0.1677,0.84443 -0.31605,0.937568 -0.0717,0.04498 -0.18191,0.008 -0.41254,-0.138225 -0.75173,-0.476733 -1.74475,-0.601225 -2.63454,-0.330282 -0.65446,0.199286 -1.54573,0.645373 -1.99148,0.996736 -0.43964,0.346555 -0.58318,0.627104 -0.68112,1.33125 -0.0812,0.584193 -0.0496,0.877836 0.20833,1.936094 0.1743,0.714969 0.18961,0.8575 0.15353,1.429474 -0.12881,2.041712 -0.12947,1.953615 0.0194,2.555994 0.1164,0.471065 0.1291,0.615137 0.0726,0.824597 -0.14006,0.520107 -0.66191,0.816075 -1.10932,0.629135 -0.24671,-0.103084 -0.31978,-0.212357 -0.38573,-0.576797 -0.0856,-0.473724 -0.36543,-0.860105 -0.62234,-0.859593 -0.0833,1.67e-4 -0.30668,0.146347 -0.53435,0.349428 -0.21523,0.192027 -0.40748,0.34914 -0.42719,0.34914 -0.0197,0 -0.081,-0.08746 -0.13633,-0.194354 -0.0848,-0.163984 -0.13215,-0.191286 -0.30298,-0.174714 -0.1505,0.0146 -0.22488,0.06665 -0.28983,0.202816 -0.12927,0.270989 -0.009,0.600002 0.33704,0.918554 0.39092,0.360334 0.54112,0.384782 1.11227,0.181049 0.43167,-0.153973 0.48618,-0.160465 0.61862,-0.07368 0.08,0.05234 0.20697,0.216161 0.28242,0.364039 0.24122,0.472823 0.52477,0.584613 0.8512,0.335605 0.25056,-0.1911 0.45666,-0.201904 1.14318,-0.05993 0.58525,0.121032 0.71522,0.08188 0.94701,-0.285339 0.0875,-0.13862 0.23504,-0.304098 0.32786,-0.367731 0.2659,-0.182308 0.53277,-0.476096 0.66657,-0.733812 0.10113,-0.194787 0.11236,-0.284281 0.0631,-0.503203 -0.0329,-0.146451 -0.11181,-0.330584 -0.17533,-0.409179 -0.52431,-0.648691 -0.48207,-0.535235 -0.53763,-1.443823 -0.0282,-0.460683 -0.10543,-1.080617 -0.17166,-1.377629 -0.13523,-0.606342 -0.10793,-0.698852 0.20624,-0.698852 0.23813,0 0.48284,-0.154755 0.48287,-0.305382 2e-5,-0.05917 -0.19043,-0.280232 -0.4232,-0.491255 -0.37001,-0.335414 -0.41802,-0.404461 -0.38177,-0.548936 0.026,-0.103567 0.15642,-0.239017 0.34935,-0.362827 0.43545,-0.279423 0.51912,-0.264778 0.51912,0.09086 0,0.912329 0.96905,1.46917 1.72379,0.990533 0.33614,-0.21318 0.57587,-0.650532 0.58764,-1.072093 0.008,-0.295186 0.0585,-0.323404 0.29515,-0.165804 0.35314,0.235134 0.39367,0.416793 0.18249,0.817562 -0.14025,0.266123 -0.46307,0.638068 -0.63542,0.732078 -0.056,0.03053 -0.30927,0.09877 -0.56292,0.151661 -0.68079,0.141951 -0.81862,0.307937 -0.41537,0.500233 0.25863,0.123332 0.26288,0.140931 0.0953,0.393986 -0.16585,0.250412 -0.16,0.423393 0.02,0.592482 0.20417,0.191817 0.40166,0.173502 0.90858,-0.08427 0.44693,-0.22725 0.68412,-0.414746 0.99328,-0.785144 0.15245,-0.182639 0.17473,-0.263644 0.17473,-0.635698 0,-0.430567 0.18689,-0.956889 0.35831,-1.009009 0.16188,-0.04922 0.4041,0.26766 0.46782,0.612016 0.10509,0.568032 0.0731,0.967547 -0.13577,1.695679 -0.17564,0.61235 -0.205,0.832251 -0.24947,1.869333 -0.032,0.745801 -0.0886,1.314654 -0.15502,1.556536 -0.20591,0.750357 -1.32631,2.679483 -1.95923,3.373443 l -0.37093,0.406717 h -0.40372 c -0.49325,0 -0.60154,-0.109501 -0.60154,-0.608295 0,-0.379585 -0.2037,-0.745182 -0.43364,-0.77829 -0.0788,-0.01136 -0.33125,0.06728 -0.56086,0.174712 -0.2296,0.107449 -0.46429,0.195267 -0.52152,0.195157 -0.0572,-1.11e-4 -0.27558,-0.114402 -0.48524,-0.25398 -0.66384,-0.441947 -0.94392,-0.423346 -1.46008,0.09698 -0.45966,0.463339 -0.57029,0.46031 -1.03974,-0.02847 -0.53222,-0.55413 -0.79401,-0.580387 -1.31249,-0.131637 -0.34994,0.302865 -0.53808,0.321114 -0.9835,0.0954 -0.38698,-0.196095 -0.57726,-0.144579 -0.75165,0.20348 -0.20718,0.413537 -0.21372,0.543917 -0.034,0.676611 0.15897,0.117371 0.16183,0.116849 0.43513,-0.07941 0.1513,-0.108659 0.29179,-0.19756 0.31218,-0.19756 0.0204,0 0.21185,0.128652 0.42545,0.285895 0.2136,0.157241 0.44842,0.285893 0.52181,0.285893 0.0734,0 0.35514,-0.07853 0.62613,-0.174519 0.49095,-0.173903 0.49381,-0.174128 0.8052,-0.06353 0.43867,0.155802 0.69733,0.139308 1.24842,-0.07961 0.26389,-0.104828 0.57197,-0.189968 0.68462,-0.189201 0.28499,0.0019 0.71371,0.209656 0.84439,0.40912 0.23198,0.354016 -0.12731,0.90385 -0.69009,1.056127 -0.23123,0.06256 -0.37716,0.04746 -1.08562,-0.112347 -0.67539,-0.152345 -0.89246,-0.176721 -1.24153,-0.139423 -0.98825,0.105596 -1.26732,0.561687 -0.5448,0.890361 0.31582,0.143664 0.54742,0.146442 1.26276,0.01515 0.45262,-0.08307 0.64451,-0.09013 0.97254,-0.03578 0.8634,0.143069 1.22722,0.470769 1.22722,1.105387 0,0.441504 -0.19867,0.833745 -0.56357,1.112678 -0.44931,0.343466 -0.75817,0.398704 -2.2293,0.398704 h -1.30855 l -0.44293,-0.214949 c -0.77163,-0.374457 -1.93062,-1.270504 -3.34415,-2.585455 -0.98936,-0.920354 -1.0942,-0.855902 -0.5248,0.322651 0.52331,1.083184 1.06609,1.858134 1.76415,2.518778 1.47386,1.394858 2.6405,1.975158 4.25793,2.117955 0.37956,0.03351 0.72978,0.09385 0.77827,0.134096 0.21453,0.17805 0.049,0.618783 -0.56739,1.51039 -0.4152,0.600589 -1.47505,1.714416 -1.87639,1.971969 -0.33499,0.214959 -0.50819,0.237168 -0.81354,0.104322 z m 1.9283,-16.045671 c 0.11135,-0.325365 0.10113,-0.635162 -0.0513,-1.555762 l -0.13676,-0.825916 0.19065,-0.908522 c 0.17846,-0.850448 0.18536,-0.933756 0.10789,-1.303345 -0.12537,-0.598068 -0.17583,-0.691044 -0.5712,-1.052383 -0.71129,-0.650091 -1.61413,-1.180567 -2.23208,-1.311502 -1.42127,-0.301155 -3.04521,0.113594 -3.85051,0.983411 -0.4218,0.455601 -0.61895,0.923471 -0.66454,1.577127 l -0.0323,0.462539 0.27663,0.255385 c 0.25589,0.236243 0.30032,0.253955 0.59273,0.236314 l 0.3161,-0.01907 0.20234,0.41296 c 0.26015,0.530991 0.44949,0.704811 0.81222,0.745697 0.24509,0.02762 0.30795,0.0092 0.44868,-0.131536 0.18432,-0.184319 0.21472,-0.360033 0.0623,-0.360033 -0.31303,0 -0.72427,-0.628729 -0.63747,-0.974577 0.0613,-0.244094 0.39378,-0.562875 0.56221,-0.53898 0.13636,0.01934 0.14366,0.04482 0.1242,0.433512 -0.0198,0.395355 -0.0109,0.424298 0.20803,0.678979 0.27187,0.316279 0.83357,0.559324 1.15379,0.499251 0.2567,-0.04816 0.73833,-0.470475 0.88211,-0.773499 0.0786,-0.165517 0.10078,-0.320304 0.0761,-0.529281 -0.048,-0.405001 0.0117,-0.487474 0.25971,-0.359202 0.10638,0.05501 0.25233,0.174901 0.3243,0.266422 0.1219,0.154955 0.12444,0.181892 0.0368,0.391506 -0.0517,0.123804 -0.19546,0.366269 -0.31942,0.53881 -0.26431,0.367895 -0.22245,0.494122 0.16383,0.494122 0.19436,0 0.29938,-0.05386 0.55747,-0.285893 0.44634,-0.40132 0.54433,-0.386061 0.50994,0.07942 -0.0214,0.290216 -0.0827,0.456728 -0.29823,0.810035 -0.24085,0.394842 -0.26724,0.47566 -0.23522,0.720525 0.0677,0.517732 0.75531,1.628308 0.98132,1.584992 0.0571,-0.01095 0.138,-0.119623 0.1797,-0.241499 z m -3.61061,-3.748742 c -0.25459,-0.148681 -0.18452,-0.651384 0.10077,-0.722987 0.25011,-0.06278 0.41629,0.05668 0.41629,0.299248 0,0.37801 -0.24773,0.581026 -0.51706,0.423739 z m -2.5907,-0.800694 c -0.14542,-0.184872 -0.13117,-0.340167 0.0676,-0.737074 0.28677,-0.572567 0.78602,-0.946691 1.41584,-1.061028 0.53997,-0.09802 0.79206,-0.08556 1.21728,0.06018 0.72256,0.247642 1.16941,0.657425 1.16941,1.07242 0,0.237881 -0.0316,0.241492 -0.33131,0.03785 -0.14354,-0.09755 -0.323,-0.158831 -0.46506,-0.158831 h -0.23131 l 0.0429,0.254128 0.0429,0.254127 -0.30738,7.56e-4 c -0.16905,4.13e-4 -0.4646,0.04296 -0.6568,0.09454 -0.19217,0.05159 -0.35656,0.09413 -0.3653,0.09455 -0.009,4.13e-4 -0.0159,-0.09932 -0.0159,-0.221609 0,-0.20721 -0.0137,-0.222362 -0.20073,-0.222362 -0.15656,0 -0.28137,0.0769 -0.56707,0.349427 -0.41946,0.40009 -0.61062,0.442989 -0.81518,0.182934 z m 10.40387,20.443048 c -0.4064,-0.261217 -0.79112,-0.618075 -1.01119,-0.937942 -0.34537,-0.501975 -1.14867,-2.114137 -1.12755,-2.262921 0.0235,-0.165672 0.17857,-0.224086 1.15143,-0.433775 1.24499,-0.268346 3.26593,-1.434917 4.33675,-2.503358 0.64588,-0.644445 0.97872,-1.116718 1.25247,-1.777057 0.21077,-0.508442 0.31208,-0.641453 0.4487,-0.589027 0.11332,0.04348 0.17866,0.345281 0.39487,1.823398 0.19672,1.344865 0.20714,1.715319 0.0609,2.164744 -0.27253,0.837679 -1.11646,2.216517 -1.80094,2.942439 -0.30078,0.318984 -1.39833,1.038986 -2.1601,1.417042 -0.78685,0.390505 -1.12757,0.425 -1.54536,0.156457 z M 127.45414,26.10909 c 0,-0.07599 0.0458,-0.22667 0.10171,-0.334845 0.0785,-0.152063 0.0918,-0.289302 0.058,-0.604897 l -0.0437,-0.408211 0.1804,0.09329 c 0.38913,0.201227 0.53951,0.569811 0.38415,0.941517 -0.11021,0.263606 -0.22234,0.35967 -0.4801,0.411222 -0.17574,0.03514 -0.20044,0.02305 -0.20044,-0.09809 z m -16.01008,-2.141676 c -0.2032,-0.144135 -0.28932,-0.25036 -0.45382,-0.559801 -0.10934,-0.205674 -0.12757,-0.325483 -0.10149,-0.667085 0.0175,-0.229013 0.087,-0.573629 0.15438,-0.765814 0.10524,-0.299893 0.14795,-0.352382 0.30128,-0.370277 0.2398,-0.02799 0.28294,0.02937 0.3536,0.47026 0.0447,0.278787 0.10291,0.41361 0.22439,0.519456 0.33074,0.288189 0.75379,0.146595 1.23657,-0.413873 l 0.27187,-0.315616 0.24548,0.09643 c 0.18008,0.07074 0.24547,0.133215 0.24547,0.23453 0,0.07838 -0.2404,0.438259 -0.55589,0.832163 -0.42909,0.535717 -0.62629,0.72895 -0.86439,0.84698 -0.40978,0.203131 -0.84763,0.241494 -1.05745,0.09265 z m 26.4068,-2.217725 c -0.49576,-0.123572 -1.18413,-0.492205 -1.57447,-0.843155 -0.82411,-0.740944 -1.49272,-2.245632 -1.33164,-2.996778 0.16552,-0.771851 0.64375,-1.643392 1.02439,-1.866892 0.41132,-0.241538 1.10105,0.0637 1.43621,0.635588 0.23554,0.401899 0.17072,0.566341 -0.28337,0.719015 -0.6519,0.219193 -1.10733,0.85646 -1.1145,1.559473 -0.005,0.455796 0.12345,0.752106 0.47882,1.10746 0.77989,0.779904 1.8077,0.753965 2.4574,-0.06202 0.51689,-0.649181 0.68998,-0.662172 1.01115,-0.07588 0.15045,0.274658 0.22824,0.511947 0.25133,0.766666 0.0334,0.368877 0.0334,0.368903 -0.23005,0.594449 -0.48988,0.419306 -1.455,0.629146 -2.12527,0.462074 z m -7.95115,-1.897949 c -0.18773,-0.187715 -0.20072,-0.351971 -0.0433,-0.546407 0.14015,-0.173086 0.34575,-0.130351 0.49913,0.103753 0.12077,0.184316 0.0479,0.416212 -0.16681,0.531143 -0.10842,0.05803 -0.15756,0.04299 -0.28903,-0.08849 z m 1.64014,-1.09739 c -0.19479,-0.199306 -0.38534,-0.337433 -0.4655,-0.337433 -0.11809,0 -0.13302,0.0309 -0.11516,0.238245 0.0233,0.270744 0.0179,0.272253 -0.45117,0.12455 -0.47863,-0.15073 -0.68405,-0.1375 -1.28816,0.08297 -0.55794,0.203621 -0.68568,0.204767 -0.68568,0.0062 0,-0.246232 0.0893,-0.341721 0.48594,-0.519684 0.29263,-0.131293 0.40352,-0.214556 0.40352,-0.302987 0,-0.178712 0.11759,-0.249465 0.60094,-0.361561 0.38568,-0.08945 0.47361,-0.09027 0.79985,-0.0075 0.51837,0.131551 0.79208,0.275038 1.02014,0.534783 0.17423,0.198443 0.19426,0.259454 0.16639,0.506726 -0.0174,0.154617 -0.0564,0.301827 -0.0864,0.327137 -0.0302,0.02531 -0.20324,-0.105832 -0.38461,-0.291421 z m 4.63833,-4.717857 c -0.28743,-0.175266 -0.65133,-0.659767 -1.0374,-1.381244 -0.43443,-0.811854 -0.66721,-1.113906 -1.2415,-1.610982 -0.61002,-0.527981 -0.64152,-0.767581 -0.0919,-0.699111 0.0524,0.0065 0.37964,0.09864 0.72718,0.204695 0.59188,0.180615 0.65661,0.217545 1.02238,0.583326 0.65644,0.656475 1.15606,1.901364 1.11926,2.788842 -0.008,0.201866 -0.0317,0.238209 -0.15284,0.238008 -0.0785,-1.3e-4 -0.23393,-0.05572 -0.34516,-0.123534 z m -21.69967,-2.961686 c -0.34409,-0.186699 -0.29761,-0.610165 0.14152,-1.2895823 0.76855,-1.1891128 2.9071,-2.8877794 3.89519,-3.0939715 0.4089,-0.085331 0.9364,-0.4091933 1.25206,-0.7687138 0.2399,-0.2732256 0.23821,-0.3508354 -0.0122,-0.561549 l -0.20226,-0.170202 -0.78156,0.045079 c -0.71761,0.041389 -0.78515,0.03573 -0.8254,-0.069162 -0.0624,-0.162486 0.33457,-0.4888759 0.96322,-0.7920448 1.12861,-0.5442847 1.70846,-0.4919025 2.86254,0.2585999 0.41442,0.2694981 1.19225,0.5075155 1.64253,0.5026165 0.14291,-0.00156 0.54348,-0.055739 0.89016,-0.1204072 0.77183,-0.1439785 0.9774,-0.098706 1.6965,0.373657 0.83801,0.5504621 0.98555,0.8076501 0.93338,1.6270017 -0.0227,0.3569241 -0.0525,0.4397504 -0.21764,0.6048638 -0.12752,0.1275142 -0.22724,0.1775233 -0.29906,0.1499671 -0.0981,-0.037628 -0.55163,-0.8918946 -0.55163,-1.0389351 0,-0.093354 -0.73393,-0.5953513 -1.24268,-0.8499943 -1.04038,-0.5207321 -1.93394,-0.5578978 -1.93394,-0.080441 0,0.198797 0.17562,0.3619539 0.76697,0.7125436 0.60993,0.3616154 0.73663,0.5452587 0.5054,0.7325019 -0.20529,0.1662428 -0.34764,0.1219068 -1.04538,-0.3255977 -0.60478,-0.3878616 -0.91038,-0.5098451 -1.6765,-0.6691691 -0.89074,-0.185238 -1.29585,-0.099487 -2.00293,0.42397 -0.50595,0.3745531 -1.19463,1.2265373 -1.28486,1.5895521 -0.059,0.2372893 -0.0876,0.2696635 -0.22235,0.2519164 -0.0851,-0.0112 -0.38799,-0.025495 -0.67312,-0.031766 -0.48275,-0.010618 -0.53714,0.00175 -0.79068,0.1797761 -0.36618,0.2571379 -0.54919,0.6355659 -0.62013,1.2822485 -0.0671,0.6121952 -0.20959,0.8836472 -0.56992,1.0861622 -0.29121,0.163679 -0.36226,0.168565 -0.59722,0.04108 z m 16.70888,-1.4548835 c -0.28906,-0.2003821 -0.39619,-0.3964768 -0.48784,-0.8929428 -0.0611,-0.3309927 -0.11006,-0.4182235 -0.38023,-0.6774574 -0.4254,-0.4081711 -0.56247,-0.7739235 -0.46469,-1.2400556 0.10498,-0.5004926 0.33794,-0.9673425 0.6231,-1.2486429 0.43776,-0.4317898 1.86221,-1.0570881 2.20952,-0.969917 0.19835,0.049782 0.22922,0.2653997 0.0463,0.3234508 -0.17934,0.056922 -1.0102,0.9535986 -1.3586,1.4662223 -0.45169,0.6645974 -0.62778,1.4727298 -0.37147,1.7046912 0.11163,0.1010326 0.14979,0.098346 0.65122,-0.045849 0.71343,-0.2051717 1.55689,-0.3234596 1.91913,-0.2691382 0.91127,0.1366517 1.88955,1.0160358 1.71873,1.5449554 -0.0199,0.061532 -0.0479,0.1504173 -0.0623,0.1975233 -0.0185,0.06064 -0.0891,0.030231 -0.24224,-0.1041496 -0.30685,-0.2694249 -0.7959,-0.4181963 -1.24177,-0.377765 -0.37936,0.034399 -0.67988,0.1621371 -1.18768,0.5048547 -0.25269,0.1705432 -0.37841,0.2103117 -0.71994,0.2277628 -0.36133,0.018462 -0.44393,2.605e-4 -0.65135,-0.1435426 z"
       style="fill:#ffffff;fill-opacity:1;stroke-width:0.0635321" />
  </g>
</svg>
